<svg width="119" height="109" viewBox="0 0 119 109" fill="none" xmlns="http://www.w3.org/2000/svg">
<path d="M116.57 16.3543C116.23 15.506 115.043 16.1846 115.212 17.033C118.097 24.8375 116.4 31.9634 111.31 38.0713C114.534 30.6061 114.873 21.7835 110.801 14.997C102.827 1.76323 77.5469 0.0666082 71.0997 14.8273C59.5626 21.7836 47.6861 29.2487 37.3366 37.9016C37.3366 37.9016 37.3366 37.9016 37.167 37.9016C37.167 37.9016 37.1669 37.9016 36.9973 37.9016C36.9973 37.9016 36.8276 37.9016 36.8276 37.7319C36.8276 37.7319 36.8276 37.7319 36.9973 37.7319C36.8276 37.7319 36.8276 37.7319 36.658 37.7319C36.4883 37.5623 36.4883 37.5623 36.3186 37.3926C36.3186 37.3926 36.3186 37.3926 36.3186 37.2229L36.149 37.0533C36.149 37.0533 36.149 36.8836 35.9793 36.8836L35.8096 36.714H35.64C35.64 36.714 35.4703 36.7139 35.4703 36.5443H35.3006C35.131 36.5443 35.131 36.5443 34.9613 36.5443C34.622 36.5443 34.113 36.8836 33.7737 37.2229C33.4343 37.3926 33.095 37.7319 32.9254 38.0713C32.9254 38.2409 32.7557 38.2409 32.7557 38.4106C32.4164 38.7499 31.9074 39.0893 31.7377 39.4286C31.5681 39.5982 31.568 39.7679 31.568 39.9376C31.3984 40.2769 31.2287 40.7859 31.2287 41.1252C31.2287 41.6342 31.568 42.1432 32.077 42.3129C32.2467 42.9915 32.7557 43.5005 33.4344 43.8398C35.3007 44.6881 37.5063 43.8398 39.2029 42.9915C39.5422 42.8218 39.8816 42.4825 39.8816 42.1432C39.8816 40.9555 39.5422 40.1072 38.8636 39.0892C49.0434 32.8117 58.8839 25.8555 68.7244 19.2386C67.1974 26.1948 67.7064 34.3387 70.421 40.7859C66.0098 44.5185 61.7682 48.5904 57.8659 51.9837C50.9097 57.9219 44.1231 63.8601 36.9973 69.6287C36.8276 69.2894 36.658 69.1197 36.3186 68.9501C35.8096 68.7804 35.131 68.6107 34.622 68.7804C34.113 68.7804 33.2647 69.1197 32.7557 69.459C31.7377 69.7984 30.7197 71.3253 30.3804 72.1737C30.3804 72.3433 30.2107 72.513 30.2107 72.513C29.8714 72.8523 29.5321 73.1916 29.3624 73.531C29.0231 74.2096 29.1928 74.7186 29.8714 75.058H30.0411C30.3804 75.7366 30.8894 76.0759 31.568 76.0759C31.7377 76.0759 31.9074 76.0759 32.077 76.0759C32.2467 76.2456 32.4164 76.2456 32.7557 76.4152C32.9254 76.7546 33.2647 76.9243 33.604 76.7546C34.113 76.7546 34.7916 76.5849 34.7916 75.7366C35.131 75.5669 35.4703 75.5669 35.64 75.3972C36.9973 74.8883 37.6759 73.8703 37.8456 72.513C37.8456 72.1737 37.8456 71.6647 37.6759 71.3253C44.8018 66.7444 51.249 60.8062 57.6962 55.377C62.2772 51.305 67.3671 47.5724 72.2873 43.6702C75.1716 47.9118 79.4132 50.796 85.3514 51.1354C86.7087 51.6444 88.066 51.9837 89.2537 52.1534C86.0301 54.868 82.9761 57.5826 79.9222 60.2972C74.1536 65.3871 67.8761 70.1377 62.1075 75.2276C61.9378 75.2276 61.7682 75.2276 61.5985 75.058C61.4288 75.058 61.2592 74.8883 61.0895 74.8883C60.4109 74.7186 59.7322 74.3793 59.0536 74.549C58.3749 74.7186 58.0356 75.0579 57.6962 75.5669C57.0176 76.0759 56.6783 76.9243 56.339 77.7726C56.1693 78.1119 56.3389 78.4512 56.5086 78.7905C56.5086 79.1299 56.339 79.4692 56.339 79.8085C56.339 80.3175 56.6783 80.8265 57.1873 80.9962C58.3749 80.9962 59.3929 80.9962 60.5805 81.1659C60.9199 81.1659 61.4288 80.9962 61.5985 80.6568C61.9378 80.1478 62.2772 79.6389 62.4468 78.9602C62.6165 78.6209 62.6165 78.1119 62.4468 77.7726C62.4468 77.6029 62.2772 77.6029 62.2772 77.4332C72.966 70.477 82.4671 61.1455 91.629 52.4927C99.6032 52.4927 106.39 46.8938 110.292 39.5982C110.462 39.7679 110.631 39.9376 110.971 39.7679C118.945 35.5263 120.132 23.9892 116.57 16.3543ZM36.3186 41.9735C36.3186 41.8039 36.4883 41.8039 36.4883 41.8039C36.6579 41.8039 36.658 41.6342 36.658 41.6342C36.8276 41.6342 36.8276 41.4645 36.9973 41.4645L37.167 41.2949C37.167 41.4645 37.3366 41.4645 37.3366 41.6342C36.9973 41.6342 36.658 41.8039 36.3186 41.9735ZM85.5211 7.36213C85.5211 7.87112 85.5211 8.21045 85.5211 8.71945C84.5031 8.88911 83.6548 9.05876 82.8065 9.39809C82.8065 9.39809 82.8065 9.39809 82.6368 9.39809C82.6368 9.05876 82.6368 8.71944 82.6368 8.21045C83.4851 7.87112 84.5031 7.5318 85.5211 7.36213ZM88.9144 49.9477C82.8065 48.5904 77.3772 47.2331 73.984 42.8219C77.0379 40.4466 79.9222 37.9016 82.4671 35.187C83.1458 34.5083 82.4671 33.4903 81.6188 33.8297C78.2256 35.187 75.002 37.2229 71.948 39.5982C71.439 38.7499 71.0997 37.7319 70.7604 36.714C69.0637 30.7757 69.7424 25.0072 70.421 19.0689C70.7603 19.2386 71.439 19.2386 71.6087 18.7296C71.7784 18.0509 72.1177 17.3723 72.457 16.8633C72.7963 16.6936 72.7963 16.3543 72.7963 16.015C74.6626 12.6217 77.5469 10.2464 80.9402 8.71945C81.1098 23.6499 88.575 37.5623 100.112 46.8938C96.8885 48.7601 93.156 49.6084 88.9144 49.9477ZM101.809 45.8758C91.12 36.5443 83.4851 24.8375 82.6368 10.5858C82.8065 10.5858 82.8065 10.5858 82.9761 10.5858C83.8245 10.4161 84.6728 10.4161 85.5211 10.2464C86.0301 21.6139 91.9683 33.8297 100.282 41.6342C99.6032 41.8039 98.9245 42.3128 99.2638 43.3308C99.4335 43.6702 100.112 43.8398 100.282 43.5005C100.621 42.9915 100.791 43.1612 101.469 42.9915C101.639 42.9915 101.639 42.9915 101.809 42.9915C102.487 43.5005 103.166 44.0095 103.845 44.5185C103.166 45.0275 102.487 45.5365 101.809 45.8758ZM107.408 40.4465C106.559 41.4645 105.711 42.4825 104.863 43.3308C94.8526 33.3207 89.7627 23.4802 87.3874 10.0768C89.7627 10.0768 92.138 10.2464 94.6829 10.4161C95.3616 10.4161 95.5313 9.56775 94.8526 9.39809C92.647 8.38011 89.7627 8.21044 86.8784 8.54977C86.8784 8.04078 86.7087 7.70147 86.7087 7.19248C95.3616 6.00484 105.202 9.73743 109.274 17.7116C113.007 25.0072 111.989 33.9993 107.408 40.4465ZM74.6626 6.85314C84.8424 -0.272739 96.0403 0.236251 106.39 6.85314C106.899 7.19246 107.408 6.34414 106.899 6.00482C97.2279 -0.951394 83.1458 -2.98736 73.984 6.00482C73.6446 6.68347 74.1536 7.19246 74.6626 6.85314ZM45.9895 86.9344C43.7838 89.14 41.0692 91.3457 39.2029 93.8906C38.8636 94.23 39.5422 94.9086 39.8816 94.5693C42.4265 92.5333 44.4625 89.9884 46.6681 87.7827C47.1771 87.2737 46.4984 86.4254 45.9895 86.9344ZM31.7377 57.0736C20.5399 64.0298 10.0208 72.1737 0.180267 80.8265C-0.328724 81.1658 0.349933 81.8445 0.858925 81.5051C11.2084 73.3613 21.0489 64.7085 32.2467 57.7522C32.4164 57.5826 32.077 56.9039 31.7377 57.0736ZM16.8073 45.1971C26.1388 38.9196 35.3007 32.642 44.8018 26.5341C45.3108 26.1948 44.9715 25.3465 44.4625 25.6858C34.9613 31.7937 25.4602 37.9016 16.2983 44.5185C15.7893 44.6882 16.468 45.3668 16.8073 45.1971ZM65.3311 63.8601C65.8401 63.5208 65.1615 62.8422 64.8221 63.1815C50.2311 74.549 38.1849 88.8007 23.9332 100.508C23.4242 100.847 24.1028 101.525 24.6118 101.186C39.3726 90.158 50.74 75.2276 65.3311 63.8601ZM108.935 21.6139C108.595 21.1049 107.747 21.2746 107.747 21.9532C108.935 27.7218 107.238 31.7937 104.523 36.8836C104.184 37.3926 104.863 38.0713 105.372 37.5623C109.444 34.8477 111.14 25.8555 108.935 21.6139ZM104.693 15.8453C104.354 14.6577 102.996 12.6217 101.639 12.6217C100.621 12.6217 100.621 13.979 101.469 14.1487C101.809 14.1487 102.318 15.1667 102.487 15.3363C102.827 15.8453 103.336 16.1847 103.845 16.524C104.354 16.524 104.863 16.1846 104.693 15.8453ZM94.3436 43.3308C93.6649 44.0095 92.8166 43.8398 91.9683 44.1791C91.4593 44.3488 91.629 45.0275 91.9683 45.1971C93.156 45.7061 94.3436 45.1971 95.1919 44.3488C95.8706 43.8398 95.0223 42.8218 94.3436 43.3308ZM81.7885 69.1197C66.8581 80.9962 53.794 94.9086 39.2029 107.294C38.6939 107.633 39.3726 108.482 39.8816 107.973C54.6423 95.9266 67.3671 81.6748 82.2975 69.6287C82.8065 69.459 82.1278 68.7804 81.7885 69.1197ZM74.6626 19.2386C74.4929 22.9712 74.3233 27.0431 75.5109 30.6061C75.6806 31.2847 76.8683 30.9454 76.6986 30.2667C76.1896 26.5341 75.8503 23.1409 75.8503 19.4083C75.6806 18.5599 74.6626 18.3903 74.6626 19.2386Z" fill="#526E84"/>
</svg>
