<svg width="292" height="181" viewBox="0 0 292 181" fill="none" xmlns="http://www.w3.org/2000/svg">
<path d="M285.07 92.7938C281.337 91.6469 277.316 92.7938 274.731 95.3742C254.054 87.0594 234.526 75.304 213.274 68.9962C212.413 65.8423 209.828 62.9751 206.382 62.115C200.925 60.3946 195.182 63.5485 193.746 68.9962C193.459 69.5696 193.459 70.1431 193.459 70.7165C165.315 79.6047 137.745 90.2133 109.027 97.9547C108.452 93.9406 105.868 90.5 101.847 89.3531C97.2522 87.9195 92.6573 89.9266 90.0726 93.9406C63.939 69.5696 43.2618 40.3244 19.4255 14.2331C19.7127 13.9464 19.7127 13.373 19.9998 13.0862C21.7229 7.6386 18.564 1.90424 13.1075 0.470654C7.65099 -1.24965 1.90734 1.90425 0.47142 7.35188C-1.25168 12.7995 1.90732 18.5339 7.3638 19.9675C11.3844 21.1143 15.405 19.6807 17.9896 16.8136C40.3899 44.3385 62.7902 73.0102 89.211 96.5211C87.7751 101.969 90.6469 107.416 96.1034 109.137C101.56 110.857 107.304 107.703 108.74 102.255C109.027 101.682 109.027 101.109 109.027 100.535C137.745 93.3672 165.315 82.7586 193.459 73.297C194.033 77.0243 196.618 80.4649 200.638 81.8985C202.936 82.4719 204.946 82.4719 206.956 81.6118C221.89 107.703 233.377 134.941 246.013 162.179C244.003 163.326 242.28 165.333 241.418 167.914C239.695 173.361 242.854 179.096 248.311 180.529C253.767 182.25 259.511 179.096 260.947 173.648C262.383 168.774 260.085 163.9 255.777 161.606C263.244 144.976 270.137 128.347 278.178 112.004C278.465 112.004 278.465 112.291 278.752 112.291C284.209 114.011 289.952 110.857 291.388 105.409C293.398 99.9617 290.239 94.5141 285.07 92.7938ZM254.054 161.033C252.331 160.459 250.608 160.746 249.172 161.033C239.121 133.221 225.049 105.409 209.254 80.4649C211.264 79.318 212.7 77.311 213.561 75.0173C213.849 74.1571 213.849 73.297 213.849 72.4368C233.664 80.4649 252.618 92.2203 272.721 98.8148C272.434 99.1015 272.434 99.675 272.147 99.9617C270.998 103.976 272.434 108.277 275.593 110.857C266.403 126.053 260.659 144.116 254.054 161.033Z" fill="white"/>
</svg>
