<svg width="119" height="118" viewBox="0 0 119 118" fill="none" xmlns="http://www.w3.org/2000/svg">
<path d="M35.8325 35.4385C35.8325 35.4385 35.9692 35.4385 35.9692 35.3021C36.2426 35.1656 36.1059 34.7562 35.8325 34.7562C35.8325 34.6198 35.6958 34.4833 35.6958 34.2104C35.6958 33.801 35.6958 33.3916 35.4225 33.1186C35.2858 32.8457 34.8757 32.8457 34.739 33.1186C34.6023 33.6645 34.6023 34.7562 35.0124 35.3021C35.4225 35.575 35.6958 35.575 35.8325 35.4385ZM26.9477 102.579C26.1276 102.306 25.4442 101.897 24.7607 101.488C24.3506 101.215 23.8039 101.897 24.214 102.17C24.7607 102.716 25.4442 102.989 26.2643 103.262C26.9477 103.535 27.6312 103.944 28.1779 104.081C28.588 104.217 28.9981 103.671 28.7247 103.398C28.1779 102.989 27.4945 102.852 26.9477 102.579ZM11.3652 27.5236C10.6817 28.4788 10.4084 29.5705 10.135 30.6623C9.99829 31.0717 10.8184 31.3446 10.9551 30.7987C11.2285 29.8435 11.5019 28.7517 12.1853 27.933C12.5954 27.5236 11.7752 26.9777 11.3652 27.5236ZM27.0844 6.78085C27.9046 5.8256 28.8614 4.87034 30.0916 4.59741C31.5952 4.05155 32.4153 4.87034 33.6455 5.55266C33.9189 5.68913 34.329 5.4162 34.1923 5.14327C33.6455 3.77862 31.7319 3.36923 30.365 3.64216C28.7247 4.05155 27.3578 5.14327 26.5377 6.50793C26.2643 6.78086 26.811 7.19025 27.0844 6.78085ZM30.0916 5.4162C29.6815 5.4162 29.6815 6.23499 30.0916 6.23499C30.5017 6.23499 31.0484 6.235 31.4585 6.37146C31.8686 6.50793 32.2786 6.64439 32.6887 6.64439C32.9621 6.64439 33.2354 6.37146 33.0987 6.09853C32.552 5.27974 31.0484 5.27974 30.0916 5.4162ZM116.616 75.8322C116.479 75.8322 116.342 75.8322 116.206 75.9687C114.292 76.5146 112.652 77.6063 110.875 78.4251C108.551 79.3803 106.364 79.3803 104.04 79.9262C103.904 79.9262 103.767 80.0627 103.63 80.1991C102.263 80.745 101.033 81.4273 99.5296 81.2908C97.8894 81.1544 96.9325 80.1991 95.5656 79.3803C95.2923 79.2439 95.0189 79.2439 94.8822 79.5168C89.0046 78.0157 78.7529 78.0157 75.7457 72.2842C75.7457 72.1477 75.609 72.1477 75.609 72.0112C74.6522 71.1924 73.422 70.783 72.3285 70.2372C72.0551 70.1007 71.7817 70.2372 71.6451 70.5101C71.235 70.5101 70.8249 70.6466 70.2782 70.6466C69.8681 70.6466 69.5947 70.6466 69.1847 70.6466C62.7603 66.4161 56.7459 62.0493 51.6884 56.1813C46.4943 50.0403 43.6238 43.3535 40.3433 36.2573C40.3433 36.1209 40.2066 36.1209 40.2066 36.1209C39.9332 35.4385 39.5231 34.8927 38.9764 34.4833C38.5663 34.0739 38.0196 33.6645 37.4728 33.6645C37.1994 32.8457 36.7893 32.0269 36.6527 31.2081C36.516 30.6623 36.3793 30.1164 36.2426 29.5705C36.926 28.7518 37.4728 27.7965 37.3361 26.8412C37.3361 26.7048 37.3361 26.7048 37.1994 26.5683C36.7894 24.3849 36.2426 22.2014 35.6958 20.018C35.1491 17.971 35.0124 16.0605 35.0124 14.0135C35.5591 11.4207 36.1059 8.9643 36.7893 6.37146C37.1994 4.73388 38.0195 2.00457 36.3793 0.639919C34.3289 -0.997663 30.9117 0.912851 29.1348 1.86811C26.811 3.09629 24.0773 4.73387 22.1636 6.78085C15.0558 12.3759 8.49472 21.5191 5.76094 29.707C5.76094 29.8435 5.76094 29.9799 5.76094 29.9799C5.35087 31.3446 5.48756 32.8457 5.07749 34.2104C4.53074 35.7115 3.16385 36.8032 2.75378 38.1678C-1.75696 52.3602 -0.800132 67.7808 6.17101 80.8814C6.17101 81.0179 6.30769 81.0179 6.30769 81.0179C7.26451 83.6108 8.6314 87.0224 10.8184 88.66C12.0486 89.6152 13.5522 89.7517 14.7824 90.707C17.5162 92.6175 19.5665 96.302 19.4298 99.5772C19.4298 99.9866 19.7032 100.123 19.9766 100.26C31.8685 110.631 47.8612 118.136 63.8538 116.772C65.6307 116.908 67.4077 118 69.1847 118C70.6882 118 71.7817 116.772 73.0119 116.089C79.7097 115.817 85.8607 113.087 91.6017 109.949C97.0692 106.946 103.22 103.671 107.594 99.0313C109.371 96.575 124.817 76.651 116.616 75.8322ZM111.011 91.2528C107.868 96.302 104.04 100.123 98.8462 103.398C90.2348 108.857 81.8967 113.087 71.7818 115.271C70.4149 115.544 69.5947 116.908 68.0911 116.908C66.5876 116.908 65.2207 115.953 63.7171 116.089C46.631 115.68 33.5088 109.676 19.9766 99.7136C20.1133 96.302 18.3363 93.0269 15.8759 90.707C14.509 89.4788 13.2788 89.2058 11.7752 88.2506C9.04147 86.613 7.81128 82.6555 6.17101 79.9262C0.840137 66.4161 -0.390081 52.7696 3.16383 38.7137V38.5772C5.62424 37.3491 7.5379 31.8905 6.17101 29.707C8.49472 25.6131 10.6817 21.5191 13.4155 17.8345C15.6025 14.9688 18.063 12.3759 20.5234 9.91956C20.66 9.91956 20.7967 9.91956 20.9334 9.78309C23.2571 7.19025 26.1276 5.14327 29.2715 3.50569C30.775 2.68689 34.8757 0.366988 35.0124 3.36922C35.1491 6.78085 32.552 10.3289 32.9621 13.7406C32.8254 14.15 32.8254 14.5594 32.8254 14.9688C32.8254 15.1052 32.9621 15.2417 32.9621 15.2417C32.9621 16.7428 33.3721 18.3804 33.6455 19.745C34.1923 22.2014 34.8757 24.6578 35.6958 26.9777C35.5591 27.2506 35.4225 27.66 35.2858 28.0694C35.1491 28.3424 35.0124 28.7518 34.8757 29.0247C34.739 29.0247 34.6023 29.1611 34.6023 29.2976C34.3289 30.1164 34.739 30.9352 35.0124 31.754C35.2858 32.5728 35.6958 33.3916 36.2426 34.2104C36.2426 34.3468 36.2426 34.4833 36.3793 34.6198C36.7893 35.0292 37.3361 35.1656 37.8829 35.575C38.2929 35.8479 38.703 36.3938 39.1131 36.8032V36.9397C42.3936 51.2685 55.1057 65.7338 68.3645 71.7383C68.3645 71.7383 68.3645 71.7383 68.5012 71.7383C68.5012 71.7383 68.5012 71.7383 68.6379 71.7383H68.7746C68.9113 71.7383 68.9113 71.7383 69.048 71.7383C70.0048 71.8747 71.0983 71.8748 71.7818 71.4654C72.6019 71.8748 73.5587 72.4206 74.5155 72.6935C74.5155 72.6935 74.5155 72.83 74.5155 72.9665C76.0191 76.5146 78.4795 77.0604 82.0334 78.0157C86.2708 79.1074 90.6448 80.3356 95.0189 80.6085C95.9757 81.8367 97.616 82.519 99.1196 82.6555C100.897 82.9284 102.537 82.2461 104.04 81.2908C107.868 82.6555 113.609 79.5168 116.479 77.0604C119.213 78.0157 111.832 90.0246 111.011 91.2528ZM8.35802 66.0068C12.5954 67.3714 12.322 59.32 12.0486 57.273C12.0486 56.8636 11.3652 56.8636 11.3652 57.273C11.0918 58.6376 11.2285 60.0023 11.0918 61.3669C11.0918 61.6399 11.0918 61.9128 11.0918 62.0493C11.2285 63.2775 10.6817 63.8233 9.45154 63.8233C8.6314 64.6421 8.08465 64.6421 7.81127 63.8233C7.5379 63.5504 7.4012 63.141 7.26451 62.7316C6.30768 60.2752 6.58107 57.5459 6.71776 55.0895C6.71776 54.5437 5.89763 54.4072 5.76094 54.9531C5.35087 57.273 5.21418 59.5929 5.76094 61.7763C6.03432 63.4139 6.85444 65.5974 8.35802 66.0068ZM6.71776 52.7696C7.26451 52.3602 7.81128 51.8144 8.22135 51.2685C9.45155 51.6779 10.135 52.6332 10.2717 53.9978C10.2717 54.4072 10.9551 54.4072 10.9551 53.9978C10.9551 52.3602 9.8616 50.9956 8.35802 50.3133C8.22133 50.3133 7.94795 50.3133 7.94795 50.4497C7.4012 50.9956 6.71775 51.6779 6.30769 52.3602C6.171 52.6332 6.44438 52.9061 6.71776 52.7696ZM10.9551 68.7361C12.8688 67.9173 13.6889 64.915 13.4155 63.0045C13.4155 62.7316 12.8688 62.5951 12.7321 63.0045C12.1853 64.5056 12.5954 66.4161 11.2285 67.6443C10.2717 68.5996 8.08465 68.5996 7.81127 67.0985C7.67459 66.6891 7.12783 66.8255 7.12783 67.2349C7.40121 68.736 9.45155 69.2819 10.9551 68.7361ZM12.4587 52.7696C12.322 55.226 12.7321 57.8188 13.1421 60.2752C13.1421 60.6846 13.8256 60.5481 13.8256 60.1387C13.6889 57.6824 13.6889 55.0895 13.1421 52.7696C13.0054 52.3602 12.4587 52.3602 12.4587 52.7696ZM23.9406 35.4385C24.214 34.6198 24.624 33.801 24.7607 32.9822C25.0341 31.8905 25.1708 30.6623 24.7607 29.5705C24.0773 27.66 22.0269 26.8412 20.3867 28.2059C18.0629 30.1164 18.8831 34.2104 19.4298 36.6667C19.5665 37.0761 20.25 37.0761 20.1133 36.5303C19.8399 35.0292 19.7032 33.528 19.7032 32.0269C19.7032 31.4811 19.8399 30.7987 19.9766 30.2529C21.2068 30.1164 22.437 29.8435 23.6672 29.707C24.3506 30.2529 23.8039 32.5728 23.6672 33.1186C23.3938 34.0739 22.9838 35.0292 22.7104 35.9844C22.5737 36.6667 22.9838 41.716 20.7967 40.4878C20.25 40.2148 19.7032 40.8972 20.25 41.3066C21.8902 42.3983 23.2571 40.8972 23.5305 39.2596C23.8039 38.0314 23.5305 36.8032 23.9406 35.4385ZM24.624 39.1231C25.5809 37.622 26.401 35.7115 26.2643 33.9374C26.2643 33.528 25.7175 33.3916 25.5809 33.801C25.0341 35.575 24.7607 37.2126 23.9406 38.8502C23.9406 39.2596 24.4873 39.5325 24.624 39.1231ZM41.4368 70.5101C42.9403 68.5996 42.5303 66.0067 41.5735 63.8233C42.667 65.3244 43.4871 66.8255 43.2137 68.8725C42.9404 71.056 41.4368 72.83 39.5231 73.9217C39.1131 74.1947 39.3864 74.7405 39.7965 74.6041C44.4439 72.5571 46.0842 65.5974 41.4368 62.5951C41.3001 62.4587 41.1634 62.5951 41.0267 62.5951C40.89 62.3222 40.7533 62.1857 40.7533 61.9128C39.5231 59.7294 37.0627 56.3177 34.1923 57.4094C33.6455 57.5459 33.9189 58.3647 34.4656 58.2282C37.1994 57.6824 39.5231 61.6399 40.3433 63.5504C41.4368 66.0067 42.2569 69.6913 39.1131 71.056C33.6455 73.5123 31.3218 66.0067 30.775 62.1857C30.6383 61.6399 29.9549 61.7763 29.9549 62.3222C30.2283 65.8703 31.3218 69.9642 34.739 71.7383C36.7893 72.83 39.7965 72.5571 41.4368 70.5101ZM32.1419 55.3625C31.5952 55.4989 31.1851 55.7719 30.9117 56.1813C30.6383 56.5907 30.775 56.8636 31.0484 57.273C31.3218 57.5459 31.7318 57.273 31.5952 57C31.7318 56.8636 31.7318 56.7271 31.8685 56.5907C32.1419 56.3177 32.6887 56.3177 32.9621 56.3177C33.6455 56.3177 34.1923 56.7271 34.8757 56.7271C35.1491 56.7271 35.4225 56.4542 35.2858 56.1813C34.8757 55.0895 33.2354 55.0895 32.1419 55.3625ZM30.9117 60.5481C30.9117 61.094 31.5952 61.094 31.7319 60.6846C31.8685 59.8658 32.4153 59.5929 32.9621 59.1835C33.2354 59.047 33.0988 58.5012 32.8254 58.5012C31.5952 58.3647 30.9117 59.4564 30.9117 60.5481ZM53.7388 69.1455C54.4222 72.4206 58.3862 75.2864 61.6668 75.1499C62.7603 75.1499 63.7171 74.4676 63.8538 73.2394C63.9905 71.6018 62.6236 70.3736 61.2567 69.6913C60.9833 69.5548 60.5733 69.9642 60.8466 70.2372C61.6668 70.9195 63.1703 71.8747 62.897 73.1029C62.4869 75.1499 59.343 73.7853 58.5229 73.3759C56.4726 72.2841 55.3791 70.6466 54.2856 68.5996C54.2856 68.5996 54.2855 68.5996 54.1489 68.4631C54.1489 68.1902 54.1489 67.7808 54.1489 67.5079C54.5589 67.5079 54.969 67.6443 55.3791 67.6443C55.6524 67.6443 55.9258 67.2349 55.6524 66.962C55.1057 66.4161 54.2855 66.4161 53.4654 66.5526C53.192 66.5526 53.0553 66.8255 53.0553 67.0985C53.0553 67.6443 53.192 68.1902 53.3287 68.7361C53.4654 69.009 53.6021 69.1455 53.7388 69.1455ZM49.6381 100.532C49.228 100.396 48.9547 100.942 49.3647 101.078C50.7316 101.761 52.2352 102.306 53.4654 103.125C56.0625 104.763 56.1992 109.266 53.0553 109.949C51.9618 110.085 50.7316 110.085 49.6381 109.949C44.9907 109.266 40.89 107.083 37.6095 103.535C37.3361 103.125 36.6527 103.671 37.0627 104.081C40.89 108.447 48.6813 113.224 54.6956 110.631C56.746 109.812 57.8395 108.038 57.2927 105.855C56.3359 102.443 52.5086 101.351 49.6381 100.532ZM36.516 101.624C36.3793 102.17 37.1994 102.17 37.1994 101.761C37.7462 99.5772 39.7965 98.349 41.9835 98.4855C43.8972 98.6219 45.4008 99.5772 47.041 100.396C47.5878 100.669 47.9978 99.9866 47.5878 99.7136C44.3072 96.9843 37.4728 96.1656 36.516 101.624ZM27.7679 80.3356C27.4945 80.1991 27.0844 80.6085 27.3578 80.8814C27.9046 81.4273 28.4513 81.8367 28.588 82.792C28.7247 83.6108 28.588 84.566 28.0413 85.1119C26.6744 86.4765 24.2139 85.5213 23.6672 83.8837C23.5305 83.6108 22.9838 83.7472 23.1204 84.0201C23.8039 86.2036 26.6744 87.2953 28.4513 85.7942C29.9549 84.4296 29.9549 80.8815 27.7679 80.3356ZM91.0549 90.1611C89.1413 89.2058 85.9974 90.2976 84.0838 90.9799C83.6737 91.1163 83.9471 91.7987 84.3571 91.6622C85.8607 91.5257 87.2276 90.9799 88.5945 90.8434C91.1916 90.434 92.8319 92.7539 92.0117 95.2103C90.3715 99.5772 84.9039 98.0761 81.6233 96.8479C81.35 96.7114 81.0766 97.2573 81.35 97.3937C84.9039 99.4407 92.2851 100.396 93.2419 94.6644C93.5153 92.8904 92.6952 90.9799 91.0549 90.1611ZM79.9831 95.4832C80.1198 96.0291 80.9399 95.6197 80.6665 95.0738C80.3932 94.2551 80.6665 93.4363 81.2133 92.7539C81.4867 92.481 81.7601 92.2081 82.1701 92.0716C82.5802 91.9351 82.8536 91.9351 83.2636 91.7987C83.537 91.6622 83.537 91.2528 83.2636 91.1163C82.3068 90.5705 81.0766 91.3893 80.3932 92.2081C79.8464 93.2998 79.573 94.3915 79.9831 95.4832ZM65.2207 93.1633C62.897 92.481 60.2999 93.7092 59.343 95.7562C59.0697 96.1656 59.7531 96.4385 60.0265 96.1656C61.2567 94.528 63.307 93.4362 65.3574 94.255C67.271 94.9374 67.6811 96.7114 68.2278 98.349C68.3645 98.6219 68.9113 98.6219 68.9113 98.349C69.5947 96.1656 67.4077 93.8456 65.2207 93.1633ZM79.0263 80.8814C79.573 81.7002 78.4795 81.7002 77.9328 81.7002C76.9759 81.5638 76.0191 80.8815 75.4724 80.0627C75.199 79.6533 74.6522 79.9262 74.9256 80.3356C75.609 81.8367 77.7961 83.2014 79.4363 82.3826C81.2133 81.5638 79.2997 79.6533 78.0695 79.5168C77.5227 79.5168 77.5227 80.0627 77.9328 80.3356C78.2061 80.3356 78.8896 80.4721 79.0263 80.8814ZM55.1057 111.45C47.9978 111.723 42.3936 110.631 37.1994 105.445C36.926 105.172 36.3793 105.582 36.6527 105.855C40.7533 110.904 48.818 114.315 55.2424 111.996C55.5158 111.996 55.3791 111.45 55.1057 111.45ZM58.2495 104.217C58.933 105.718 59.343 107.356 58.5229 108.993C58.2495 109.403 58.933 109.949 59.2063 109.403C60.2999 107.765 60.4366 105.172 58.933 103.808C58.5229 103.671 58.1128 103.808 58.2495 104.217ZM45.6741 97.1208C47.7245 98.4855 50.1849 99.4407 52.6453 100.26C53.0554 100.396 53.3287 99.8501 52.9187 99.5772C50.5949 98.6219 48.4079 97.3937 46.0842 96.5749C45.6741 96.4385 45.4008 96.9844 45.6741 97.1208ZM38.703 57.8188C38.9764 58.6376 39.3864 59.1835 39.9332 59.8658C40.2066 60.2752 40.89 59.8658 40.7533 59.32C40.3433 58.6376 40.0699 57.9553 39.3864 57.4094C39.1131 57.1365 38.5663 57.4094 38.703 57.8188ZM49.7748 58.6376C45.9475 53.3155 43.2137 47.8569 40.0699 42.1253C39.9332 41.7159 39.2497 41.9889 39.3864 42.3983C41.1634 48.4027 45.1274 54.4072 49.2281 59.1835C49.6381 59.4564 50.0482 59.047 49.7748 58.6376ZM37.3361 40.4878C37.3361 41.3066 37.7462 42.1253 38.0195 42.9441C38.1562 43.3535 38.8397 43.0806 38.703 42.6712C38.5663 41.8524 38.4296 40.8972 37.8829 40.2148C37.7462 40.0784 37.3361 40.2148 37.3361 40.4878ZM39.1131 39.2596C38.5663 38.4408 38.1562 37.3491 37.3361 36.6667C37.0627 36.5303 36.6527 36.6667 36.7893 37.0761C37.0627 38.0314 37.8829 38.9866 38.4296 39.8054C38.703 40.0784 39.3864 39.669 39.1131 39.2596ZM54.5589 72.2842C54.2855 72.0112 53.7388 72.2841 54.0122 72.6935C55.9258 76.1052 61.12 78.4251 64.8106 77.0604C65.084 76.924 64.9473 76.5146 64.6739 76.5146C62.7603 76.5146 61.12 76.651 59.343 75.9687C57.156 75.1499 55.9258 73.9217 54.5589 72.2842ZM60.8466 69.009C61.12 69.009 61.3934 68.5996 61.12 68.4631C60.7099 68.1902 60.2999 68.0537 59.8898 67.7808C59.4797 67.5079 59.0697 67.0985 58.6596 66.6891C58.3862 66.2797 57.7028 66.8255 58.1129 67.2349C58.6596 68.0537 59.6164 69.009 60.8466 69.009ZM74.5155 82.3826C74.7889 82.792 75.3357 82.2461 75.0623 81.9732C74.3788 81.0179 73.6954 79.9262 73.1486 78.8345C73.6954 78.0157 74.5155 78.0157 75.4724 78.1521C75.8824 78.2886 76.0191 77.6063 75.7457 77.4698C74.6522 76.7875 73.1486 77.3334 72.4652 78.2886C72.0551 78.9709 72.4652 79.3803 72.8753 80.0627C73.422 80.8815 73.9688 81.7002 74.5155 82.3826ZM75.0623 79.2439C75.609 79.3803 76.1558 79.6533 76.8392 79.5168C77.1126 79.5168 77.2493 79.1074 76.9759 78.9709C76.4292 78.698 75.8824 78.5615 75.3357 78.5615C74.9256 78.4251 74.7889 79.1074 75.0623 79.2439ZM89.9614 87.9777C86.9542 87.5683 84.6305 90.0246 81.6233 90.0246C81.2133 90.0246 81.0766 90.707 81.6233 90.707C83.4003 90.9799 84.7672 90.1611 86.4075 89.4788C89.4146 88.2506 91.8751 89.0694 93.7887 91.6622C94.0621 92.0716 94.6088 91.6622 94.4721 91.2528C93.652 89.4788 91.875 88.2506 89.9614 87.9777ZM87.501 99.4407C82.8536 100.396 79.2997 98.2125 78.7529 93.4363C78.7529 93.0269 78.0695 93.0269 78.0695 93.4363C77.6594 98.349 83.2636 102.306 87.6377 100.123C88.0478 99.8501 87.7744 99.3043 87.501 99.4407ZM101.307 92.481C100.897 92.3445 100.623 93.0268 101.033 93.1633C102.537 93.8456 104.314 92.3445 103.767 90.8434C103.494 90.1611 102.947 89.6152 102.263 89.4788C101.717 89.3423 100.486 89.3423 100.35 90.1611C100.213 90.434 100.486 90.707 100.76 90.707C101.17 90.707 101.443 90.434 101.853 90.434C102.263 90.434 102.673 90.707 102.81 90.9799C103.494 91.9351 102.127 92.8904 101.307 92.481ZM69.7314 108.993C69.1847 109.403 69.5947 110.358 70.1415 109.949C70.9616 109.403 75.8824 106.946 76.4292 108.857C77.1126 111.177 71.6451 111.313 70.4149 111.313C69.8681 111.313 69.8681 112.132 70.2782 112.132C72.3285 112.132 77.9328 111.996 77.2493 108.72C76.8392 105.718 71.235 108.038 69.7314 108.993ZM8.76809 76.7875C7.4012 76.651 7.4012 78.1522 7.4012 79.1074C7.67458 81.1544 8.6314 83.2014 10.135 84.7025C10.5451 85.1119 11.2285 84.566 10.8184 84.1566C10.135 83.2014 9.45154 82.1096 9.04147 81.0179C9.04147 80.8815 8.35803 79.3803 8.49472 79.1074C9.04148 77.8792 9.86161 79.1074 10.135 79.5168C11.7753 81.4273 12.4587 83.8837 12.5954 86.3401C12.5954 86.8859 13.5522 86.8859 13.5522 86.3401C13.5522 84.2931 13.1421 82.3826 12.1853 80.6085C11.6386 79.2439 10.2717 76.924 8.76809 76.7875ZM105.681 95.3468C104.04 96.575 102.81 98.349 101.17 99.7136C99.3929 101.215 97.616 102.443 95.5656 103.535C95.1556 103.808 95.429 104.353 95.839 104.217C99.6663 102.443 104.314 99.7136 106.227 95.8926C106.501 95.3468 105.954 95.0738 105.681 95.3468ZM108.141 92.2081C107.731 92.3445 107.458 92.7539 107.184 93.1633C106.774 93.7092 107.594 94.3915 108.141 93.8456C108.414 93.4362 108.688 93.1633 108.825 92.6175C108.825 92.3445 108.414 92.0716 108.141 92.2081ZM112.378 85.2484C111.695 85.9307 111.285 86.7495 110.875 87.5683C110.465 88.387 109.918 89.2058 109.508 90.1611C109.235 90.5705 110.055 90.9799 110.328 90.5705C110.875 89.7517 111.285 88.9329 111.832 88.1141C112.242 87.2953 112.788 86.613 112.925 85.6577C113.062 85.3848 112.652 84.9754 112.378 85.2484ZM112.378 80.3356C111.968 80.4721 112.105 81.2909 112.652 81.1544C113.335 81.0179 113.335 81.9732 113.472 82.3826C113.609 82.6555 113.882 82.6555 114.019 82.6555C114.702 82.3826 114.565 81.4273 114.155 80.8814C113.745 80.1991 113.062 80.0627 112.378 80.3356ZM103.767 83.0649C104.04 82.6555 103.63 82.3826 103.22 82.519C101.99 82.9284 101.033 83.6108 99.803 83.7472C98.4361 83.8837 97.0692 83.8837 95.839 83.3378C95.429 83.2014 95.1556 83.8837 95.5656 84.0201C98.026 85.1119 101.853 85.3848 103.767 83.0649ZM104.724 82.9284C104.997 82.792 105.271 82.6555 105.544 82.3826C105.817 82.1096 105.407 81.5638 105.134 81.7002C104.724 81.8367 104.587 81.9732 104.314 82.2461C103.63 82.3826 104.177 83.2014 104.724 82.9284ZM93.1053 80.6085C92.1484 80.1991 91.0549 80.3356 90.2348 80.8814C89.8247 81.1544 90.0981 81.7002 90.5081 81.4273C91.1916 81.0179 91.875 81.1544 92.6952 81.4273C93.3786 81.7002 93.652 82.3826 94.0621 82.9284C94.3354 83.2014 94.7455 83.0649 94.7455 82.6555C94.8822 81.8367 93.9254 81.0179 93.1053 80.6085ZM32.552 21.2462C32.8254 22.2014 33.0987 23.0202 33.2354 23.9755C33.3721 25.2037 33.0988 26.2954 32.8254 27.3871C32.6887 27.933 33.3721 28.2059 33.6455 27.66C34.4656 25.6131 34.6023 22.6108 33.2354 20.8368C32.962 20.5638 32.552 20.8368 32.552 21.2462ZM8.08465 32.7092C7.94796 30.3893 8.49472 28.3424 9.58824 26.2954C10.2717 24.9307 11.3652 23.839 11.9119 22.4743C12.0486 22.065 11.5019 21.792 11.2285 22.065C8.49472 24.5213 6.44437 29.1611 7.26451 32.8457C7.4012 33.3916 8.08465 33.1186 8.08465 32.7092ZM4.80412 38.5772C3.02716 39.5325 2.3437 41.8524 2.48039 43.7629C2.48039 44.3088 3.30053 44.1723 3.30053 43.6265C3.16384 41.7159 3.98397 40.4878 5.21417 39.2596C5.48755 38.8502 5.21419 38.3043 4.80412 38.5772Z" fill="#FEC841"/>
</svg>
