<svg width="98" height="97" viewBox="0 0 98 97" fill="none" xmlns="http://www.w3.org/2000/svg">
<path d="M97.8008 49.3844C97.8008 22.1101 76.0926 0 49.3142 0C22.5356 0 0.827515 22.1101 0.827515 49.3844C0.827515 72.0752 15.8536 91.1891 36.3233 96.9733C40.3276 87.0906 43.1003 74.8279 44.2808 62.7126C24.8356 61.873 9.80484 56.2341 9.80484 49.4055C9.80484 44.6536 17.0849 40.4779 28.0622 38.0956L33.9497 18.1067L39.3444 36.424C40.9516 36.2799 42.6003 36.173 44.2808 36.0986C45.9292 36.029 47.6095 35.9917 49.3142 35.9917C51.0189 35.9917 52.6992 36.029 54.3476 36.0986C56.0279 36.173 57.6765 36.2799 59.2839 36.424L64.6786 18.1067L70.5661 38.0956C81.5434 40.4779 88.8236 44.6536 88.8236 49.4055C88.8236 56.234 73.7927 61.8729 54.3476 62.7126C55.528 74.828 58.3007 87.0906 62.305 96.9733C82.7746 91.1891 97.8008 72.0752 97.8008 49.3844Z" fill="white"/>
</svg>
