<svg width="130" height="437" viewBox="0 0 130 437" fill="none" xmlns="http://www.w3.org/2000/svg">
<path d="M128.923 411.654C109.643 398.627 92.4474 382.473 76.815 363.714C76.815 363.193 76.815 362.672 76.815 362.151C71.0831 353.293 65.3511 343.914 60.1403 334.534C57.0138 332.971 54.4084 330.886 52.3241 328.281C50.7608 326.718 53.3664 323.591 55.4508 325.155C55.4508 325.155 55.4506 325.155 55.9717 325.155C51.8031 317.338 48.1554 309.001 44.5079 301.185L43.9869 301.706C42.9448 302.227 41.9025 301.706 41.9025 300.664C41.9025 299.101 42.4236 297.537 42.9447 295.974C33.5652 272.004 27.3123 247.513 25.7491 220.938C22.6226 164.662 41.3814 107.343 74.2096 62.0086C75.7728 59.9243 77.3362 57.8401 78.8994 55.7557C78.3783 52.6292 78.3783 49.5027 80.4626 47.4184C81.5048 46.8973 83.068 46.8974 83.068 47.9395C83.068 48.4606 83.5889 48.9816 83.5889 49.5027C97.1371 32.8281 113.291 18.7589 130.486 6.77399V0C116.938 8.85838 103.911 19.28 92.4474 31.2649C3.34253 122.454 -1.34713 264.188 75.2518 363.714C74.7307 364.236 74.7307 365.278 75.2518 365.799C90.8842 387.163 109.643 405.401 130.486 419.47V411.654H128.923Z" fill="white"/>
<path d="M42.9442 302.227L43.4651 301.706C48.1548 297.538 50.7603 289.2 52.3235 283.99C53.8868 278.258 53.887 272.526 50.2394 267.315C50.2394 267.836 50.2394 267.836 50.2394 268.357C50.7605 270.441 47.1129 270.963 46.5918 268.878V268.357C46.5918 268.878 46.5918 269.399 46.5918 269.399C49.1972 276.173 48.155 281.384 45.5496 287.637C44.5074 290.243 42.4231 293.369 41.381 296.496C40.8599 298.059 40.3387 299.622 40.3387 301.185C40.8598 302.227 41.902 302.749 42.9442 302.227Z" fill="white"/>
<path d="M50.7612 267.835C50.7612 267.314 50.7612 267.314 50.7612 266.793C49.719 260.54 49.198 254.287 48.1558 248.034C53.3666 245.429 57.0142 240.218 61.1828 236.571C61.7039 236.05 61.7038 235.529 61.7038 235.007C61.1827 235.529 60.6618 236.05 59.6196 236.571C58.0564 237.613 56.4932 236.05 57.0142 234.486C52.3245 236.571 49.1979 242.303 44.5082 244.387C43.466 244.908 42.9449 245.95 43.4659 246.992C45.5503 253.766 45.5503 260.54 47.1136 267.314V267.835C47.6347 270.962 50.7612 270.441 50.7612 267.835Z" fill="white"/>
<path d="M59.6196 236.571C60.1407 236.05 61.1827 235.529 61.7037 235.008C72.6464 224.065 59.6197 208.433 63.2672 195.406C63.2672 194.885 63.2672 194.364 63.2672 194.364C62.7462 194.885 62.2249 195.927 61.1828 196.448C60.6617 196.969 59.6194 196.969 59.0983 196.448C56.4929 200.617 57.0141 205.306 58.5774 210.517C61.1828 219.897 63.7883 226.671 57.0142 235.008C56.4931 236.571 58.0564 237.613 59.6196 236.571Z" fill="white"/>
<path d="M61.1818 195.926C61.7029 195.405 62.2241 194.884 63.2663 193.842C66.9138 189.673 70.5612 184.983 69.519 179.252C68.9979 176.646 67.4348 174.562 66.3926 172.478C64.3083 168.83 62.7452 165.182 60.6609 161.014C60.1398 160.493 60.1397 159.972 59.6186 159.972C59.0976 159.972 58.5764 159.972 58.5764 159.972C57.5343 160.493 57.0132 161.014 57.0132 162.056C58.0554 167.788 61.1818 171.956 63.7872 176.646C67.4348 182.899 63.266 188.11 59.0974 193.321C58.5763 193.842 58.5765 194.884 59.6186 195.405C59.6186 196.447 60.6607 196.968 61.1818 195.926Z" fill="white"/>
<path d="M59.0975 159.972C59.6186 159.972 59.6188 159.451 59.6188 158.93C66.9139 137.566 111.727 156.325 128.402 140.171V137.566C127.359 137.566 126.838 137.045 126.838 136.003C112.248 146.424 95.5735 143.298 78.8989 144.861C73.6881 145.382 65.8717 145.903 61.182 149.03C56.4923 152.156 57.5343 152.677 56.4921 158.93C56.4921 159.451 57.0133 159.972 57.5344 160.493C58.5765 159.972 59.0975 160.493 59.0975 159.972Z" fill="white"/>
<path d="M119.022 101.611C117.98 101.611 116.938 101.09 115.896 100.569C115.375 101.09 115.375 102.132 115.896 102.653C118.501 104.738 121.628 105.259 124.233 107.343C126.317 108.906 127.881 111.512 128.923 114.117V104.217C126.318 101.611 123.712 100.048 120.586 99.5269C120.586 100.569 120.064 101.611 119.022 101.611Z" fill="white"/>
<path d="M128.923 137.565V129.749C128.402 131.833 127.881 133.396 127.36 135.481V136.002C127.36 137.044 127.881 137.565 128.923 137.565Z" fill="white"/>
<path d="M112.77 82.3304C112.77 84.4148 109.643 84.4148 109.643 82.3304C109.643 81.8094 109.643 81.8095 109.643 81.2884C107.559 84.9359 107.038 89.1045 108.601 92.7521C110.164 96.9207 112.77 99.5261 116.938 100.568C117.981 101.089 119.023 101.089 120.065 101.611C121.107 101.611 121.628 100.568 121.628 100.047C121.628 99.5262 121.628 99.0051 121.107 99.0051C117.981 96.9208 114.333 94.3153 113.812 90.6678C113.291 87.0202 114.854 82.8517 115.375 79.2041C115.375 78.1619 114.854 77.6407 113.812 77.6407C112.77 78.6829 112.77 80.2461 112.77 82.3304Z" fill="white"/>
<path d="M87.7577 66.1775C86.7155 66.1775 85.6735 65.6563 84.6313 65.1352C84.6313 66.1774 85.1524 66.6985 86.1945 67.2195C91.9264 68.2617 97.1374 65.6564 102.348 68.7829C106.517 71.3883 108.08 76.0779 109.122 80.7677C109.122 81.2888 109.122 81.2888 109.122 81.8099C109.643 83.8942 112.249 83.3731 112.249 81.8099C112.249 80.2467 112.249 78.6833 112.249 77.12C111.727 72.4303 109.122 67.7406 104.954 64.6141C100.785 61.4876 94.0107 60.4455 88.7999 62.0087C90.8843 63.572 90.3631 66.6986 87.7577 66.1775Z" fill="white"/>
<path d="M78.8991 47.9394C76.8147 50.0238 76.8145 53.1501 77.3356 56.2766C77.8566 57.3188 77.8567 58.361 78.3778 59.4031C79.941 62.0085 82.0254 64.0929 84.6308 65.6562C85.673 66.1772 86.715 66.1771 87.7572 66.6982C90.3626 67.2193 90.8839 63.5718 89.3207 62.5296C89.3207 62.5296 89.3205 62.5296 88.7994 62.5296C86.194 61.4875 84.1096 59.9242 82.5464 56.7977C82.0253 54.7134 82.0254 52.6292 82.0254 50.5448C82.0254 50.0238 82.0256 49.5026 81.5045 48.9815C80.9834 47.4183 79.4201 46.8973 78.8991 47.9394Z" fill="white"/>
<path d="M51.8029 328.28C54.4083 330.886 57.0137 332.97 59.6191 334.533C62.7456 336.097 65.872 337.139 68.9985 337.66C73.1671 338.181 76.8146 337.66 80.9833 337.66C88.7995 337.66 87.7574 339.744 92.4471 345.476C99.7423 354.334 111.727 350.687 122.149 353.813C121.628 352.771 122.67 351.208 123.712 351.729C124.754 351.729 125.796 352.25 126.317 352.25C126.317 352.25 126.318 351.729 125.796 351.729C121.628 348.082 116.938 347.039 111.206 347.039C108.601 347.039 105.995 348.082 103.39 347.561C95.0524 346.518 92.447 339.223 90.3627 332.97C89.8416 331.928 88.7996 331.928 88.2786 331.928C74.7305 334.012 65.351 334.533 54.4083 325.675C54.4083 325.675 54.4081 325.675 53.887 325.675C52.8449 323.591 50.2396 326.717 51.8029 328.28Z" fill="white"/>
<path d="M122.148 353.814C122.148 354.335 122.669 354.335 122.669 354.856C125.275 356.42 127.359 357.983 128.402 360.067V353.293C127.88 352.772 127.359 352.772 126.317 352.251C125.275 351.73 124.754 351.73 123.712 351.73C122.67 351.209 122.148 352.772 122.148 353.814Z" fill="white"/>
<path d="M66.3932 313.691C86.7154 316.817 108.08 317.338 128.923 312.648V310.043C108.08 313.169 87.7574 314.212 66.9142 311.085C65.351 311.085 65.3511 313.17 66.3932 313.691Z" fill="white"/>
<path d="M68.4775 298.058C66.9143 298.058 66.3932 300.663 68.4775 300.663C70.5619 300.663 73.1672 300.663 75.2515 300.663C76.8148 300.663 76.2937 298.579 75.2515 298.058C72.6461 298.058 70.5619 298.058 68.4775 298.058Z" fill="white"/>
<path d="M96.095 299.621C94.5318 299.621 94.5318 301.705 96.095 302.226C107.038 303.269 117.98 302.227 128.923 300.663V298.058C117.98 299.1 107.559 300.663 96.095 299.621Z" fill="white"/>
<path d="M64.83 287.637C86.7154 288.158 107.559 290.242 128.923 284.51V282.426C108.08 287.637 86.7153 285.031 65.351 285.031C63.7877 285.031 63.2668 287.637 64.83 287.637Z" fill="white"/>
<path d="M70.0404 274.61C71.6036 274.61 73.6879 274.61 75.2512 274.61C76.8144 274.61 76.2933 272.526 75.2512 272.526C73.6879 272.526 72.1246 272.526 70.5613 272.526C68.477 271.484 67.956 274.61 70.0404 274.61Z" fill="white"/>
<path d="M91.4048 275.652C99.7421 274.088 108.079 274.088 115.896 272.525C117.459 272.004 116.938 269.92 115.375 270.441C107.037 271.483 98.7001 272.004 90.8838 273.567C89.8417 274.088 89.8416 276.173 91.4048 275.652Z" fill="white"/>
<path d="M70.0411 259.498C80.9838 259.498 91.9264 259.498 102.869 259.498C104.432 259.498 104.432 257.413 102.869 257.413C91.9264 256.892 80.9838 257.413 70.0411 257.413C68.4778 257.413 68.4778 259.498 70.0411 259.498Z" fill="white"/>
<path d="M86.1946 246.471C87.7579 246.471 87.7579 244.387 86.1946 244.387C84.6314 244.387 83.0683 244.387 81.5051 244.387C79.9418 244.387 79.9418 246.992 81.5051 246.992C83.0683 246.471 84.6314 246.471 86.1946 246.471Z" fill="white"/>
<path d="M128.922 325.154C121.106 325.675 112.769 325.154 104.432 324.112C102.868 324.112 102.347 326.197 103.911 326.718C111.727 328.802 120.064 329.323 128.922 328.802V325.154Z" fill="white"/>
<path d="M115.896 337.139C113.812 337.139 113.812 340.266 115.376 340.266C117.981 340.266 121.107 340.266 123.713 340.266C125.276 340.266 124.755 338.181 123.713 337.66C121.628 337.139 118.502 337.139 115.896 337.139Z" fill="white"/>
<path d="M20.5382 110.99C-2.38938 149.029 -2.38951 199.574 2.82131 242.824C2.82131 244.387 5.94798 244.387 5.94798 242.824C6.46906 196.447 4.38468 156.324 23.1436 112.553C23.6647 110.99 21.0593 109.948 20.5382 110.99Z" fill="white"/>
<path d="M38.2545 86.4988C44.5074 65.1345 63.2664 53.1496 73.167 34.3907C73.688 32.8275 71.6037 31.7852 70.5616 33.3485C57.5345 48.9809 39.8178 65.6556 35.1281 86.4988C34.607 87.541 37.7334 88.062 38.2545 86.4988Z" fill="white"/>
<path d="M59.6197 368.404C53.3667 359.025 47.6349 350.166 42.4241 340.266C41.903 338.703 39.2976 339.745 39.8187 341.308C45.0295 351.209 50.2401 361.109 57.5353 369.968C58.5774 371.01 60.1408 369.446 59.6197 368.404Z" fill="white"/>
<path d="M15.8479 330.365C34.0858 371.009 57.0134 408.006 92.4469 435.623C94.0102 437.186 96.0946 434.06 94.5314 433.018C59.6189 405.4 38.2544 368.925 18.4533 329.323C17.4112 327.759 15.3269 328.801 15.8479 330.365Z" fill="white"/>
<path d="M77.3358 389.769C76.2937 388.206 74.2095 390.291 75.2517 391.854C86.1944 406.965 101.827 422.597 119.544 429.372C121.107 429.893 122.149 427.808 120.586 427.287C103.911 415.823 89.3207 405.923 77.3358 389.769Z" fill="white"/>
</svg>
