<svg width="220" height="220" viewBox="0 0 220 220" fill="none" xmlns="http://www.w3.org/2000/svg">
<path opacity="0.3" d="M206.925 57.9665C193.19 32.1411 169.882 12.9804 141.58 4.64959C113.277 -3.68118 83.7263 -0.765412 57.9211 12.9804C32.1159 26.7261 12.9702 50.0523 4.64595 78.3769C-3.6783 106.702 -0.764813 136.276 12.9702 162.101C18.381 172.098 25.0404 181.262 33.3646 189.176C32.5322 190.842 34.6133 192.508 35.8619 191.259C45.4348 200.423 57.0888 207.504 69.5752 212.502C69.159 213.752 71.24 215.002 71.6562 213.752C71.6562 213.752 71.6562 213.752 71.6562 213.335C73.7373 214.168 75.8183 215.002 78.3155 215.418C88.7209 218.75 99.5424 220 110.364 220C128.261 220 146.158 215.418 162.391 206.671C188.196 192.925 207.342 169.599 215.666 141.274C223.574 113.783 220.66 83.7919 206.925 57.9665ZM11.3054 80.4596C19.2134 54.2177 37.1106 32.5577 61.2509 19.2284C76.6508 10.8977 92.883 6.73228 109.948 6.73228C119.937 6.73228 129.926 8.39846 139.915 11.3142C144.493 12.5638 149.072 14.6465 153.65 16.7292C144.91 27.9757 136.169 17.9788 125.764 20.8946C121.186 22.1442 116.607 26.7262 113.694 30.0585C110.364 34.2239 109.532 39.2223 106.618 43.8042C102.04 50.4688 97.0452 51.7184 89.5533 53.3846C84.1426 54.2177 79.1481 54.6342 73.7373 54.6342C70.4076 54.6342 67.9102 53.8011 66.2454 51.7185C61.6671 51.7185 62.4995 49.6357 55.8401 53.3846C49.1807 57.55 42.5213 62.965 37.5267 69.2131C29.2025 80.0431 25.4565 90.04 10.0567 85.458C10.0567 83.7919 10.8892 82.1257 11.3054 80.4596ZM9.22432 88.3739C22.5431 92.5392 27.9538 87.9573 36.6943 75.4611C42.5212 67.1304 54.1752 53.8011 64.1643 54.2176C67.0778 54.2176 72.0724 57.9665 75.4021 57.9665C89.5534 59.2161 103.288 56.3003 109.948 43.8042C112.861 38.8057 113.694 32.9742 119.104 29.2253C137.834 15.063 132.839 28.3923 144.077 26.7261C150.737 25.4765 154.066 22.9773 156.98 18.3954C160.31 20.0615 163.223 21.7277 166.136 23.8104C165.72 23.8104 165.72 24.2269 165.304 24.2269C161.974 28.3923 164.055 35.0569 161.142 38.3892C160.31 39.6388 159.893 40.4719 159.893 40.8884C159.893 40.4719 158.645 39.2223 154.483 37.9727C152.402 37.5561 149.488 36.7231 147.407 37.1396C137.834 39.2223 139.499 46.72 137.834 54.6342C132.007 76.7108 104.953 59.2162 93.7155 78.7935C90.3858 84.625 92.4668 90.4566 91.2182 96.7046C84.975 131.694 52.5104 107.535 39.6078 91.7061C38.7754 90.873 37.1105 90.873 36.6943 91.7061C30.0349 102.953 24.2079 119.198 7.55937 119.198C6.31073 109.617 6.72704 98.7873 9.22432 88.3739ZM24.6241 167.933C22.5431 165.017 20.8783 162.101 19.2134 159.185C12.9702 147.939 9.22422 135.859 7.55937 123.363C14.2188 123.78 19.2134 122.53 24.6241 117.948C27.9538 115.032 33.3646 101.287 36.6943 100.453C42.5212 98.7873 45.0185 105.452 49.5969 108.784C61.6671 118.781 84.1426 127.528 93.7155 108.784C97.0452 101.703 93.7155 94.2054 95.7965 87.1242C103.705 60.4658 122.434 80.8761 136.169 70.0461C149.904 59.2161 134.504 33.3907 164.055 46.3034C165.304 47.1365 166.969 45.4704 166.969 44.2207C165.72 37.9727 169.05 32.9742 166.969 27.5592C167.801 29.6419 171.131 28.3923 170.715 26.3096C183.617 35.0569 194.439 47.1365 201.931 61.2989C189.861 67.5469 179.872 77.9604 165.304 76.2942C164.055 76.2942 163.223 77.1273 163.223 77.9604C162.807 101.287 149.072 133.777 119.937 117.532C118.688 117.115 117.44 117.115 117.023 118.365C114.942 122.947 111.196 130.028 106.618 132.11C104.953 132.943 97.4614 131.277 95.3803 132.527C92.883 133.777 92.8831 137.525 90.3858 139.192C84.1426 143.773 80.3967 138.775 72.9048 140.441C52.0942 145.856 55.8401 178.346 27.5377 167.1C25.4566 167.1 24.6241 167.516 24.6241 167.933ZM158.645 200.839C153.234 203.755 147.407 206.254 141.164 208.337C141.164 207.504 141.58 206.254 141.996 205.421C142.829 202.089 144.91 199.59 146.991 197.09C151.985 191.259 158.645 188.343 166.553 187.093C167.385 187.093 167.801 186.26 167.801 185.844C171.131 178.763 173.628 172.515 180.288 167.933C186.115 164.184 192.774 162.518 199.433 162.101C189.444 178.346 175.709 191.675 158.645 200.839ZM208.59 140.025C206.509 146.689 204.012 152.937 200.682 158.769C185.282 157.519 166.553 166.683 164.472 183.761C156.564 183.761 149.488 187.927 144.077 193.342C140.748 197.09 136.169 203.755 136.585 209.587C118.272 214.585 98.71 214.168 80.3966 208.753C79.148 208.337 77.8994 207.92 76.6507 207.504C94.9641 188.76 127.012 201.672 144.91 179.596C154.482 167.516 158.228 151.688 169.882 141.274C182.785 130.444 200.682 128.778 213.169 117.532C211.92 125.029 210.671 132.527 208.59 140.025ZM212.752 113.783C212.336 113.783 211.92 113.783 211.504 114.199C197.769 125.446 178.207 127.528 165.304 140.025C154.899 149.605 150.737 164.184 142.412 175.43C124.931 199.173 88.7209 183.761 72.9048 206.254C60.8347 201.672 49.597 194.591 40.4403 185.844C51.678 175.014 68.3265 177.097 79.148 165.017C82.4777 161.268 80.3967 159.185 85.3912 156.27C87.8885 154.603 96.2127 154.187 99.5424 153.77C109.115 151.688 118.688 149.188 127.845 145.856C143.661 140.441 158.645 134.193 167.801 119.198C178.623 100.87 179.872 81.7092 206.093 79.6265C208.59 79.21 207.758 75.4612 205.26 75.8777C182.369 77.5439 176.542 91.7061 167.801 110.45C153.234 140.858 112.029 149.605 81.2291 152.937C80.3967 152.937 79.9805 153.77 79.5643 154.187C73.3211 172.931 50.4294 170.848 37.943 183.761C33.7808 179.596 30.4511 175.43 27.1214 170.848C55.8401 185.427 60.0022 133.777 86.6398 147.939C87.4722 148.355 88.7209 148.355 89.5533 147.522C95.7965 136.276 107.034 137.109 115.775 129.195C123.267 122.53 119.104 125.446 127.845 125.862C134.088 126.279 138.25 127.112 144.493 124.196C156.147 118.781 162.391 105.452 164.888 93.7888C167.385 82.5423 166.969 84.2084 176.542 80.4596C186.115 76.7107 194.023 70.0462 203.179 65.4642C210.255 80.4596 213.585 97.1211 212.752 113.783ZM154.899 197.923C153.65 197.923 153.234 200.006 154.899 200.006C156.147 200.006 156.564 197.923 154.899 197.923ZM61.667 131.694C46.6834 123.363 35.8618 132.527 26.2889 142.94C25.0403 142.524 23.7917 143.773 24.2079 145.023C23.3755 145.856 22.5431 146.689 21.7107 147.522C20.4621 148.772 22.1269 151.271 23.7918 149.605C24.6242 148.355 25.8728 147.522 26.7052 146.273C39.6078 151.271 52.9266 140.858 62.9157 133.777C64.1644 133.36 62.9157 131.694 61.667 131.694ZM29.6187 143.773C32.116 141.274 34.6132 138.358 37.1105 136.276C44.1861 130.861 50.8455 130.444 58.3374 133.36C48.3483 138.358 41.2727 145.44 29.6187 143.773ZM131.591 102.536C136.169 100.037 138.666 94.2054 139.915 89.6234C140.331 87.9573 137.834 87.9573 137.418 89.2069V89.6234C134.504 87.1242 129.51 86.2911 125.764 87.5407C122.018 88.7904 119.937 92.5392 119.937 96.2881C119.937 98.3708 122.434 98.3708 122.85 96.7046C123.267 93.7889 124.515 91.2896 127.845 90.4566C130.758 90.04 133.672 91.2896 136.169 92.1227C136.169 92.1227 136.169 92.1227 136.585 92.1227C135.337 95.0385 134.088 98.3707 131.591 100.037C128.261 102.12 124.515 100.453 121.602 98.3708C120.353 97.5377 118.688 99.6204 119.937 100.453C122.85 102.953 127.429 105.035 131.591 102.536ZM162.807 64.2146C171.131 67.5469 178.623 60.4657 179.872 52.135C179.872 51.3019 179.455 50.8854 179.039 50.8854C172.38 47.5531 164.888 52.5515 162.807 59.2162C162.391 60.8823 164.888 62.1319 165.304 60.0492C166.137 57.55 167.801 55.0508 170.299 53.8011C172.38 52.9681 174.044 52.9681 176.126 52.9681C174.877 55.4673 173.628 58.3831 171.131 60.0492C168.634 61.7154 166.137 61.7154 163.223 61.2989C161.974 61.2989 161.558 63.7981 162.807 64.2146ZM124.931 164.184C118.688 177.097 107.034 187.51 92.0506 181.678H91.6344C96.2127 168.766 107.867 165.85 121.186 165.85C122.85 165.85 123.267 163.351 121.602 163.351C106.202 160.852 91.6344 168.349 88.7209 184.178C88.3046 185.427 90.802 186.26 91.2182 184.594C91.2182 184.594 91.2182 184.594 91.2182 184.178C91.2182 184.178 91.2182 184.178 91.6344 184.178C107.867 190.426 122.018 179.596 127.845 164.6C127.429 163.767 125.348 162.934 124.931 164.184ZM198.601 95.455C198.185 96.7046 197.769 97.9542 197.352 99.2038C197.352 99.2038 197.352 99.2039 196.936 98.7873C189.028 96.2881 182.369 103.369 179.872 110.45C179.455 112.117 181.953 112.95 182.369 111.283C184.45 105.868 189.861 100.037 196.104 101.287C195.271 103.786 194.439 106.285 192.358 108.784C189.028 112.95 184.034 115.032 178.623 115.865C176.958 116.282 177.374 118.365 179.039 118.365C190.693 117.532 199.85 107.951 200.266 95.8715C201.098 94.6219 199.017 94.2054 198.601 95.455ZM62.9157 34.2238C68.3265 38.3892 75.4021 42.5546 82.8939 40.8884C87.8885 39.6388 91.6344 35.89 93.7155 31.308C94.5479 30.8915 94.9642 30.0584 94.5479 29.2253C94.9642 28.3923 94.9641 27.9757 95.3803 27.1426C95.7965 25.4765 93.7154 24.6434 92.883 26.3096C92.4668 26.7261 92.4669 27.5592 92.0506 27.9758C82.4778 27.1427 72.0724 28.8088 62.9157 31.308C61.2509 31.7246 61.2509 34.2238 62.9157 34.2238ZM90.3858 31.308C88.3048 35.0569 85.3912 37.9727 80.8128 38.3892C75.8183 38.8058 70.8238 36.3065 66.6616 33.3907C74.1535 31.7246 82.0616 30.8915 90.3858 31.308ZM33.3646 57.55C34.6132 50.8853 38.3591 41.7215 45.0185 38.3892C43.3537 48.3862 39.6079 56.7169 32.116 63.798C30.8674 65.0477 32.5322 67.1304 33.7808 65.8807C41.2727 58.7996 49.1807 47.1365 47.9321 36.3065C47.9321 35.4735 47.0997 35.0569 46.6835 35.4734C37.1106 36.723 30.4512 48.8027 30.035 57.55C30.035 59.6327 32.9484 59.6327 33.3646 57.55Z" fill="#FF12BC"/>
</svg>
