<svg width="93" height="188" viewBox="0 0 93 188" fill="none" xmlns="http://www.w3.org/2000/svg">
<path d="M91.9262 63.7897C92.0959 64.2987 92.9442 63.9593 92.7745 63.4503C92.4352 61.584 91.9262 59.7178 91.2476 58.0211V62.2627C91.5869 62.7717 91.7566 63.2807 91.9262 63.7897Z" fill="white"/>
<path d="M91.4172 84.9977C91.4172 82.1134 91.4172 79.3988 91.4172 76.5145C91.4172 76.3449 91.4172 76.3448 91.2476 76.3448L91.4172 84.9977Z" fill="white"/>
<path d="M43.9116 166.097C71.2275 150.827 90.2298 122.324 89.0421 90.427C87.8545 58.6999 67.3252 29.0087 37.4644 17.9806C13.5418 9.15806 -14.6224 12.5513 -35.8303 26.4638V29.0087C-18.6943 17.3019 3.36199 12.5513 23.8913 16.2839C32.5441 17.8109 40.688 21.0345 48.1532 25.2761C48.3229 24.5974 49.3408 24.5974 49.5105 25.2761C49.5105 25.6154 49.5105 25.7851 49.5105 26.1244C67.4949 37.3222 80.3893 55.6459 85.1399 76.8539C86.1579 78.3809 87.0062 80.0775 87.0062 81.7741C87.0062 82.2831 86.3275 82.4527 85.9882 82.1134C90.2298 110.617 77.6747 138.611 54.9397 156.256C35.9374 171.187 12.6935 176.277 -8.68413 171.866C-8.51447 172.035 -8.51447 172.205 -8.3448 172.544C-8.17514 172.884 -8.51447 173.562 -9.02346 173.223C-10.0414 172.714 -10.7201 172.035 -11.5684 171.187C-20.0516 169.321 -28.1955 165.588 -35.8303 160.498V163.043C-12.5864 178.482 18.971 180.179 43.9116 166.097Z" fill="white"/>
<path d="M38.1432 42.2423C39.3309 41.394 39.8399 40.376 40.1792 38.8491C40.8579 35.6255 42.2152 33.9288 45.2691 32.2322C47.9837 30.7052 49.6804 29.3479 49.5107 26.294C49.5107 25.9546 49.5107 25.785 49.5107 25.4456C49.341 24.5973 48.3231 24.767 48.1534 25.4456C48.1534 25.6153 48.1534 25.6153 48.1534 25.785C48.4927 30.1963 44.0815 30.5355 41.3669 32.9108C38.4826 35.4558 39.1612 38.6794 37.2949 41.5637C37.8039 41.0547 38.3129 41.7334 38.1432 42.2423Z" fill="white"/>
<path d="M25.4179 51.065H25.5876C26.9449 50.3863 28.4719 49.538 29.9988 50.047C30.8472 50.3863 31.6955 51.0649 32.2045 51.7436C32.3741 52.0829 32.3741 52.4223 32.7135 52.5919C33.2225 52.9312 34.0708 52.9313 34.7494 52.9313C35.2584 52.9313 35.9371 52.4223 35.7674 51.9133C34.9191 48.3503 35.2584 44.9571 37.973 42.4121C37.973 42.4121 38.1427 42.2425 38.1427 42.0728C38.3124 41.5638 37.8034 41.0548 37.2944 41.3941C33.7314 43.4301 33.0528 47.502 33.9011 51.2346C33.7314 51.2346 33.5618 51.2346 33.5618 51.2346C33.0528 51.065 31.8651 49.3683 31.1865 49.029C29.1505 47.8413 26.6056 48.3503 25.0786 50.047C24.9089 50.2166 24.9089 50.3863 24.9089 50.3863C25.0786 50.556 25.2483 50.7256 25.4179 51.065Z" fill="white"/>
<path d="M15.747 59.0391C17.7829 60.3964 20.8369 60.3964 22.1942 58.1908C23.5515 55.9851 23.7212 53.4402 25.2481 51.2345C25.2481 51.0649 25.4178 51.0649 25.2481 50.8952C25.2481 50.5559 25.0785 50.3862 24.7392 50.3862C24.5695 50.3862 24.5695 50.3862 24.3998 50.3862C22.5335 51.5739 22.0245 53.7795 21.3459 55.6458C21.0066 56.4941 20.6672 57.6818 19.8189 58.0211C18.4616 58.6998 16.9346 57.6817 15.5773 57.6817C15.238 57.6817 14.8987 58.0211 15.0683 58.3604C15.238 58.3604 15.238 58.3604 15.4077 58.5301C15.747 58.6997 15.747 58.8694 15.747 59.0391Z" fill="white"/>
<path d="M9.13029 64.1288C8.96062 64.1288 8.96062 64.2985 8.79096 64.2985C9.80894 64.4681 10.9966 63.7895 11.8449 63.1109C13.0326 61.9232 13.7112 60.5659 15.0685 59.5479C14.7292 59.5479 14.5595 59.5479 14.2202 59.5479C13.7112 59.5479 13.5415 59.0389 13.7112 58.6996C12.6932 59.2086 12.0146 60.0569 11.3359 60.9052C10.9966 61.4142 10.6573 61.9232 10.1483 62.2625C9.46962 62.7715 8.79096 62.7715 8.1123 63.1109C8.28197 63.1109 8.45163 63.1108 8.79096 62.9412C9.29995 63.1108 9.63928 63.9592 9.13029 64.1288Z" fill="white"/>
<path d="M14.051 59.5482C14.3903 59.5482 14.7296 59.5482 14.8993 59.5482C15.069 59.5482 15.2386 59.5482 15.4083 59.3785C15.578 59.3785 15.578 59.2089 15.578 59.0392C15.578 58.8696 15.578 58.6999 15.4083 58.5302C15.2386 58.5302 15.2386 58.3605 15.069 58.3605C14.8993 58.3605 14.7296 58.3606 14.56 58.1909H14.3903C14.2206 58.1909 14.2206 58.1909 14.051 58.1909C13.7117 58.1909 13.542 58.3606 13.542 58.5302C13.542 59.2089 13.7117 59.5482 14.051 59.5482Z" fill="white"/>
<path d="M-22.0874 78.8899C-22.4268 73.4607 -16.1492 73.1214 -13.6042 69.7281C-13.2649 69.2191 -13.9436 68.3708 -13.7739 68.2011C-11.3986 64.6382 -9.53232 68.3708 -6.98736 69.0494C-4.61207 69.8978 -4.61207 68.8798 -2.91543 68.0314C0.986831 66.1651 5.22842 66.8438 8.96102 64.4685C9.13069 64.4685 9.13069 64.2988 9.30035 64.2988C9.80934 63.9595 9.30035 63.2809 8.79136 63.2809C8.62169 63.2809 8.28237 63.4505 8.1127 63.4505C5.05876 64.1292 2.5138 63.9595 -0.540143 64.2988C-3.59409 64.6382 -2.06711 65.1471 -4.10308 65.9955C-7.83568 67.5224 -7.15703 66.3348 -10.0413 65.1471C-11.3986 64.4685 -13.6042 63.9595 -14.9616 64.9775C-15.9795 65.6562 -15.8099 65.8258 -16.3189 67.0135C-16.6582 67.6921 -15.6402 68.2011 -15.8099 68.7101C-16.3189 70.2371 -18.0155 70.7461 -19.3728 71.7641C-22.4268 73.9697 -24.4627 76.345 -23.1054 80.0776C-23.1054 80.2472 -22.9357 80.4169 -22.7661 80.4169C-22.9357 80.2472 -22.9357 79.9079 -23.1054 79.5686C-23.2751 78.7202 -22.4268 78.3809 -22.0874 78.8899Z" fill="white"/>
<path d="M12.1843 99.7583H12.354C6.75506 94.6684 2.34381 108.072 -3.08543 95.1774C-4.10341 92.8021 -4.44274 90.0875 -6.13938 88.0515C-7.83601 85.8459 -12.9259 84.3189 -12.9259 81.265C-12.9259 81.0953 -13.0956 80.756 -13.2653 80.756C-15.6405 80.247 -20.7305 81.265 -22.0878 78.8897C-22.4271 78.211 -23.2754 78.72 -23.1057 79.3987C-22.9361 79.738 -22.9361 79.9077 -22.7664 80.247C-20.7305 83.9796 -17.1675 79.738 -14.2832 82.283C-14.4529 82.1133 -13.7742 84.9976 -13.4349 85.1673C-11.2293 87.8819 -8.68433 87.2032 -6.64837 90.5965C-4.6124 94.1594 -4.95173 99.5887 -1.38879 102.134C3.87078 105.866 7.77304 98.7403 12.1843 101.625C12.5236 101.964 13.0326 101.625 13.2023 101.285C12.863 101.285 12.354 101.285 12.0146 101.285C10.9967 101.116 11.1663 99.7583 12.1843 99.7583Z" fill="white"/>
<path d="M26.2663 87.2031C26.6056 87.0335 26.7753 87.0335 27.1146 86.8638C24.4 86.0155 22.364 88.5605 21.346 90.9357C19.3101 95.5167 18.1224 99.5886 12.3538 99.7583H12.1842C11.3359 99.7583 11.1662 101.116 12.0145 101.285C12.3538 101.285 12.8628 101.285 13.2022 101.285C16.5954 101.285 19.1404 99.2493 20.837 96.1953C21.6853 94.4987 22.1943 92.4627 23.2123 90.7661C24.2303 88.8998 25.4179 88.5604 27.4539 88.2211C27.1146 88.2211 26.7753 88.2211 26.4359 88.2211C25.9269 88.2211 25.5876 87.3728 26.2663 87.2031Z" fill="white"/>
<path d="M53.0737 97.7225C53.413 97.7225 53.7523 97.7225 53.922 97.8922C53.5827 96.8742 53.2433 95.8562 52.7343 94.8382C52.5647 94.3292 52.0557 94.3293 51.5467 94.4989C40.8579 98.5709 46.4568 81.6045 37.1253 80.5865C36.7859 80.5865 36.4466 80.7562 36.277 81.0955C34.75 86.5247 31.0174 85.8461 27.1151 87.0337C26.7758 87.0337 26.6061 87.2034 26.2668 87.373C25.7578 87.5427 25.9275 88.391 26.4365 88.391C26.7758 88.391 27.1151 88.391 27.4544 88.391C30.5084 88.391 33.9017 87.882 35.9376 85.5067C37.1253 84.1494 37.2949 81.9438 39.5006 83.1314C41.3669 84.1494 41.8759 87.373 42.3848 89.2393C42.8938 91.6146 43.2332 94.6686 45.2691 96.1956C46.1174 96.8742 47.1354 97.0439 48.3231 97.2136C50.868 97.3832 51.2074 96.3652 52.7343 98.2315C52.7343 97.8922 52.904 97.7225 53.0737 97.7225Z" fill="white"/>
<path d="M61.5563 84.1492C61.5563 83.8098 61.3866 83.3008 61.3866 82.9615C60.8776 85.5064 61.0473 87.3728 58.8416 89.2391C58.5023 89.5784 58.3326 90.257 58.672 90.5963C60.7079 92.802 61.3866 95.347 58.3326 97.2133C56.9753 98.0616 55.4484 98.2313 53.9214 98.0616C53.5821 98.0616 53.2427 98.0616 53.0731 97.8919C52.9034 97.8919 52.7337 97.8919 52.5641 98.0616C52.3944 98.4009 52.3944 98.9099 52.7337 99.0795C55.4484 100.267 58.8416 99.4189 60.8776 97.3829C63.0832 95.0076 62.2349 92.293 60.5383 90.0874C62.4046 88.0514 63.0832 85.8458 62.5742 82.9615C62.5742 82.7918 62.4046 82.6222 62.2349 82.4525C62.2349 82.9615 62.4046 83.6402 62.2349 84.1492C62.5742 84.6581 61.5563 84.6581 61.5563 84.1492Z" fill="white"/>
<path d="M62.4044 63.7898C62.2347 64.9774 62.2347 66.3347 62.4044 67.692C62.7437 70.9156 63.7617 73.6303 59.1808 74.309C58.6718 74.309 58.3325 74.9876 58.5021 75.4966C59.8595 77.8719 60.7078 80.4168 61.2168 83.1314C61.2168 83.4708 61.3864 83.9798 61.3864 84.3191C61.3864 84.8281 62.4044 84.8281 62.4044 84.3191C62.4044 83.8101 62.4044 83.1315 62.4044 82.6225C62.2347 80.2472 61.5561 78.0415 60.5381 75.8359C67.155 74.4786 62.4044 68.0314 63.4224 62.9415C63.4224 62.7718 63.4224 62.7718 63.4224 62.7718C63.2527 63.1111 62.9134 63.4505 62.9134 63.7898C62.9134 63.7898 62.5741 63.7898 62.4044 63.7898Z" fill="white"/>
<path d="M71.3968 68.0314C71.2272 67.0134 70.2092 65.8258 69.7002 64.8078C69.0215 63.4505 68.1732 62.0931 67.1552 60.9055C66.4766 60.2268 65.6283 59.5482 64.4406 59.8876C63.0833 60.2269 62.5743 61.9235 62.0653 63.1112C61.8957 63.4505 62.0653 63.6201 62.4047 63.7898C62.5743 63.9595 62.9137 63.7898 62.9137 63.6201C63.0833 63.2808 63.253 62.9415 63.4226 62.6021C63.9316 61.9235 64.4406 61.2449 65.1193 61.5842C65.9676 61.9235 66.6463 63.4505 66.9856 64.1292C67.8339 65.4865 68.8519 68.3707 70.3789 69.0494C70.3789 68.5404 70.7182 67.8617 71.3968 68.0314Z" fill="white"/>
<path d="M87.0063 81.9436C87.0063 80.2469 85.9883 78.5502 85.14 77.0233C84.2917 75.666 83.4433 74.3087 83.104 72.7817C83.104 72.4424 82.7647 72.2727 82.595 72.103C78.8624 70.9154 75.1298 69.3884 71.3972 68.2008H71.2275C70.5489 68.0311 70.2096 68.7098 70.5489 69.0491C70.5489 69.2188 70.7186 69.2188 70.7186 69.2188C72.9242 70.2368 75.1298 71.2547 77.3354 72.103C79.2017 72.9514 80.7287 72.9514 81.7467 74.8177C82.9343 77.193 84.122 80.0772 85.9883 82.1132C86.4973 82.6222 87.0063 82.4526 87.0063 81.9436Z" fill="white"/>
<path d="M18.4616 104C18.4616 104.169 18.292 104.169 18.4616 104C18.4616 104.169 18.6313 104.169 18.801 104C19.8189 102.982 20.8369 101.625 22.1942 101.455C23.3819 101.285 24.3999 101.794 25.2482 102.642C25.4178 102.303 25.7572 102.134 26.0965 102.303C26.4358 102.473 26.7751 102.642 26.9448 102.812V102.642C26.0965 100.776 24.5695 99.4189 22.3639 99.5885C20.3279 99.7582 18.6313 101.115 17.9526 102.812C18.4616 103.151 18.6313 103.66 18.4616 104Z" fill="white"/>
<path d="M6.24648 106.375C7.0948 105.527 7.77346 104.679 9.30043 104.848C10.6577 104.848 11.8454 105.527 13.2027 105.697C15.2387 106.206 17.2746 105.866 18.4623 104.17C18.4623 104.17 18.4623 104 18.6319 104C18.9713 103.661 18.6319 103.152 18.2926 102.982C18.1229 102.982 17.9533 102.982 17.7836 103.152C15.069 105.527 12.6937 103.491 9.63976 103.152C7.43413 102.982 5.56783 104.17 5.05884 106.206C5.2285 106.036 5.39816 106.036 5.56783 105.866C5.73749 105.527 6.24648 106.036 6.24648 106.375Z" fill="white"/>
<path d="M-12.5867 116.555C-14.7923 115.367 -17.5069 114.349 -17.3372 111.295C-17.1676 106.884 -13.944 108.241 -11.0597 108.75C-8.51472 109.259 -6.81809 108.75 -5.63044 106.714C-1.72818 109.768 2.17409 110.786 6.24601 106.884C6.41568 106.714 6.41568 106.714 6.41568 106.545C6.41568 106.036 5.90669 105.696 5.3977 106.036C5.22803 106.205 5.05837 106.205 4.88871 106.375C0.986441 108.92 -2.06751 107.563 -5.46078 104.678C-5.96977 104.339 -6.47876 104.678 -6.81809 105.018C-9.02372 110.277 -15.4709 103.321 -18.1856 108.072C-21.4092 113.671 -16.6586 116.385 -12.417 118.251C-12.5867 117.912 -12.5867 117.573 -12.7563 117.233C-13.0956 116.894 -12.926 116.724 -12.5867 116.555Z" fill="white"/>
<path d="M13.3721 140.987C13.8811 140.817 14.39 140.647 14.7294 140.817C14.7294 140.478 14.5597 140.308 14.2204 140.308C11.3361 140.308 7.94283 140.647 6.92485 136.575C6.92485 136.236 6.58552 135.897 6.24619 135.897C3.36191 135.897 -1.55834 136.575 -3.5943 134.031C-3.93363 133.522 -4.61228 131.146 -4.78195 130.468C-4.95161 130.298 -5.12127 130.128 -5.4606 129.959C-12.2471 128.941 -9.1932 122.663 -10.8898 118.252C-11.0595 117.743 -11.3988 117.403 -11.5685 116.894C-11.7382 116.725 -11.7382 116.555 -11.9078 116.385C-12.0775 116.216 -12.4168 116.216 -12.5865 116.216C-12.7561 116.385 -12.9258 116.555 -12.7561 116.894C-12.5865 117.234 -12.4168 117.573 -12.4168 117.912C-11.2292 121.306 -12.5865 124.869 -11.2292 128.092C-9.53253 132.164 -4.44262 129.789 -5.12127 135.218C-5.12127 135.558 -4.95161 135.897 -4.61228 135.897C-1.89766 136.575 0.816957 136.575 3.53158 137.084C6.24619 137.424 5.56754 138.272 7.09451 139.799C8.62148 141.326 11.1664 141.835 13.3721 141.496C13.0327 141.496 13.2024 141.156 13.3721 140.987Z" fill="white"/>
<path d="M20.3279 155.069C20.4976 154.899 20.4976 154.729 20.3279 154.56C19.6493 152.863 18.6313 151.166 17.9526 149.3C17.6133 148.452 17.1043 147.603 17.1043 146.925C17.1043 146.246 17.274 145.398 17.274 144.719C17.274 142.853 16.5953 140.817 14.8987 140.647C14.5593 140.647 14.0504 140.647 13.5414 140.817C13.202 140.987 13.202 141.326 13.3717 141.665C13.3717 141.835 13.5414 141.835 13.711 141.835C16.9346 141.835 15.4077 145.567 15.5773 147.434C16.0863 150.148 17.9526 153.033 19.6493 154.899C19.8189 154.729 20.1582 154.729 20.3279 155.069Z" fill="white"/>
<path d="M37.8035 121.136C38.8215 126.226 35.9372 127.753 36.2765 131.825C36.2765 132.843 36.9552 133.691 37.1249 134.539C37.6338 138.951 38.3125 140.477 36.7855 144.38C35.9372 146.755 34.9192 148.961 34.0709 151.336C32.3743 155.069 27.1147 165.079 21.6855 158.462C20.4978 156.935 20.6675 156.935 20.4978 155.408C20.4978 155.408 20.4978 155.238 20.3281 155.238C20.1585 155.069 19.6495 154.899 19.4798 155.238C19.3102 155.917 19.1405 156.596 18.8012 157.274C18.6315 157.614 18.8012 157.953 19.1405 158.123C23.0428 161.516 27.2844 164.57 31.526 160.158C35.4282 156.087 40.1788 144.889 40.5181 139.29C40.6878 136.236 39.1608 134.2 38.9912 131.146C38.6518 127.413 40.1788 124.359 39.5001 120.796C38.9912 118.421 38.3125 114.01 37.6338 111.974C36.7855 109.768 36.4462 109.599 34.2406 108.75C33.5619 108.411 33.2226 109.429 33.9012 109.768C34.0709 109.768 34.2406 110.108 34.4102 110.617C35.5979 112.822 37.6338 119.948 37.8035 121.136Z" fill="white"/>
<path d="M29.9989 106.036C28.981 105.018 28.1326 103.83 27.1147 102.982C26.7753 102.812 26.6057 102.473 26.2663 102.473C25.927 102.303 25.5877 102.473 25.418 102.812C25.2484 102.982 25.2484 103.321 25.418 103.491C26.2663 105.187 28.3023 106.714 29.6596 108.072C31.0169 109.259 32.3742 110.447 33.9012 111.126C34.4102 111.295 34.7495 110.786 34.5799 110.447C34.5799 110.447 34.5799 110.447 34.4102 110.277C32.7136 108.92 31.3562 107.563 29.9989 106.036Z" fill="white"/>
<path d="M47.1351 136.745C47.3047 136.745 47.644 136.575 47.644 136.406C50.698 132.503 55.2789 126.735 51.8856 121.815C50.8677 120.118 48.4924 118.082 46.4564 118.761C44.0811 119.609 44.2508 122.493 44.5901 124.359C43.5721 128.771 42.7238 135.727 47.1351 136.745ZM49.3407 121.305C51.0373 122.663 51.8856 124.699 51.3767 126.904C51.0373 129.11 49.171 133.182 47.3047 134.709C46.7957 135.048 46.7957 135.557 45.9474 134.879C45.4384 134.539 45.2688 133.352 45.2688 132.843C45.0991 131.655 45.0991 130.637 45.2688 129.449C45.4384 127.244 46.1171 125.038 46.1171 123.002C46.1171 122.832 45.9474 122.663 45.7777 122.493C46.4564 120.966 47.4744 119.779 49.3407 121.305Z" fill="white"/>
<path d="M61.5563 109.429C70.5485 108.75 78.0137 102.303 84.1216 96.0255C84.4609 95.6862 83.9519 95.1772 83.6126 95.3469C76.8261 101.115 70.8878 107.563 61.3867 108.581C60.8777 108.75 61.0473 109.429 61.5563 109.429Z" fill="white"/>
<path d="M64.7797 102.473C66.4764 101.964 68.173 101.624 69.7 100.776C70.0393 100.606 69.8696 99.9278 69.5303 100.097C67.8337 100.437 66.137 101.115 64.6101 101.624C64.1011 101.794 64.2707 102.642 64.7797 102.473Z" fill="white"/>
<path d="M78.3533 94.3289C76.1477 96.1952 73.942 97.7221 71.5667 99.0794C71.0577 99.4188 71.3971 100.097 71.9061 99.7581C76.487 97.2132 81.7466 94.1592 84.2915 89.5783C84.4612 89.239 84.1218 88.73 83.7825 89.0693C81.9162 90.7659 80.2196 92.6322 78.3533 94.3289Z" fill="white"/>
<path d="M68.5126 94.4988C72.9239 93.4808 78.1835 90.5966 81.0677 86.864C81.4071 86.5246 80.8981 86.0156 80.5588 86.3549C76.6565 89.2392 73.0936 92.2932 68.343 93.8202C67.834 93.8202 68.0036 94.6685 68.5126 94.4988Z" fill="white"/>
<path d="M73.9418 87.7124C74.6205 87.3731 75.2991 87.0338 75.9778 86.5248C76.6564 86.1854 77.3351 85.8461 77.8441 85.3371C78.1834 84.9978 78.0138 84.4888 77.5048 84.4888C76.8261 84.6585 76.1474 84.9978 75.6384 85.3371C74.9598 85.6765 74.2811 86.1854 73.6025 86.5248C72.9238 87.0338 73.4328 88.0518 73.9418 87.7124Z" fill="white"/>
<path d="M59.0116 119.1C60.8779 118.591 62.7442 118.252 64.4408 117.403C64.7802 117.234 64.6105 116.555 64.2712 116.555C62.4049 116.894 60.5386 117.403 58.8419 118.082C58.1633 118.252 58.333 119.27 59.0116 119.1Z" fill="white"/>
<path d="M81.5771 104.509C76.8265 107.733 72.9242 111.804 67.8343 114.519C67.3253 114.858 67.6646 115.537 68.1736 115.367C73.2635 112.822 78.1838 109.259 82.0861 105.188C82.4254 104.679 81.9164 104.17 81.5771 104.509Z" fill="white"/>
<path d="M56.8061 127.074C64.9499 125.886 74.6208 121.645 79.3714 114.689C79.541 114.349 79.2017 113.84 78.8624 114.18C72.4151 120.118 65.4589 124.699 56.6364 126.226C56.1274 126.226 56.2971 127.074 56.8061 127.074Z" fill="white"/>
<path d="M56.1271 134.031C57.4844 134.031 59.181 133.691 60.199 132.843C60.5383 132.504 60.199 131.995 59.8597 131.995C58.5024 132.164 57.4844 132.843 56.1271 133.013C55.4484 133.013 55.6181 134.031 56.1271 134.031Z" fill="white"/>
<path d="M74.6204 123.681C70.5485 126.396 66.9855 129.28 62.4046 130.977C61.8956 131.146 62.2349 131.995 62.7439 131.825C67.1552 130.128 71.7361 127.753 75.1294 124.36C75.4687 123.851 74.9597 123.342 74.6204 123.681Z" fill="white"/>
<path d="M68.8521 132.673C64.9498 134.879 60.7082 136.575 56.6363 138.442C56.1273 138.611 56.4666 139.46 56.9756 139.29C61.2172 137.933 65.7981 136.236 69.3611 133.352C69.5307 133.013 69.1914 132.334 68.8521 132.673Z" fill="white"/>
<path d="M54.0909 144.21C53.2426 144.041 52.2246 144.21 51.546 144.719C51.037 145.059 51.7157 145.907 52.2246 145.398C52.7336 144.889 53.4123 145.058 54.0909 144.889C54.5999 144.889 54.5999 144.38 54.0909 144.21Z" fill="white"/>
<path d="M58.6717 142.683C58.1627 142.853 58.502 143.701 59.011 143.532C61.3863 142.514 63.9313 141.665 65.9672 140.308C66.4762 139.969 65.9672 139.46 65.4583 139.629C63.2526 140.308 60.8773 141.496 58.6717 142.683Z" fill="white"/>
<path d="M52.0557 150.827C53.7523 150.318 55.449 149.64 56.9759 148.622C57.3153 148.452 56.9759 147.773 56.6366 147.943C55.1096 148.791 53.5827 149.47 51.886 149.979C51.2074 150.318 51.7164 150.997 52.0557 150.827Z" fill="white"/>
<path d="M42.7236 25.1064C43.0629 24.5974 42.3843 24.258 42.045 24.5973C37.1247 30.1962 33.3921 35.9648 26.7752 39.8671C26.2662 40.2064 26.6056 40.885 27.1145 40.5457C33.5618 37.6614 39.1607 31.2143 42.7236 25.1064Z" fill="white"/>
<path d="M34.071 38.5095C33.3923 39.3578 32.8833 40.2061 31.6957 40.5455C31.3563 40.7151 31.3563 41.2241 31.6957 41.2241C33.053 41.3938 34.4103 40.0365 34.7496 38.8488C34.9193 38.5095 34.4103 38.1702 34.071 38.5095Z" fill="white"/>
<path d="M25.5881 36.4738C24.9095 37.3221 24.0611 37.8311 23.0432 38.3401C22.5342 38.6795 22.8735 39.5278 23.5522 39.1885C24.7398 38.6795 25.9274 38.0008 26.4364 36.8132C26.4364 36.3042 25.7578 35.9648 25.5881 36.4738Z" fill="white"/>
<path d="M36.2766 25.7847C34.2406 28.669 31.8654 31.214 29.3204 33.5893C28.9811 33.9286 29.4901 34.7769 29.8294 34.2679C32.3743 31.723 34.9193 29.3476 36.7856 26.124C36.9553 25.7847 36.4463 25.4454 36.2766 25.7847Z" fill="white"/>
<path d="M19.6495 34.9469C24.4001 32.911 28.6417 28.839 31.5259 24.5974C31.8653 24.2581 31.1866 23.7491 30.8473 24.0885C26.945 27.6514 24.0607 31.7233 19.1405 34.0986C18.8012 34.4379 19.1405 35.1166 19.6495 34.9469Z" fill="white"/>
<path d="M19.8189 28.3297C18.6312 28.669 17.7829 29.687 16.9346 30.5353C16.5953 31.0443 17.2739 31.723 17.7829 31.214C18.6312 30.5353 19.4795 29.687 20.3279 29.0084C20.6672 28.669 20.3279 28.1601 19.8189 28.3297Z" fill="white"/>
<path d="M23.043 26.2937C24.7396 25.1061 25.9273 23.5791 26.7756 21.8824C26.9453 21.3735 26.4363 21.0341 26.097 21.3735C24.9093 22.9004 23.8913 24.4274 22.3643 25.4454C21.8554 25.9544 22.534 26.633 23.043 26.2937Z" fill="white"/>
<path d="M20.8371 22.3919C18.9708 23.2402 17.2741 24.7671 15.9168 26.1244C15.4078 26.6334 16.0865 27.3121 16.5955 26.9727C17.2741 26.2941 18.1225 25.6155 18.9708 24.9368C19.8191 24.4278 20.6674 23.9188 21.3461 23.2402C21.6854 22.7312 21.3461 22.2222 20.8371 22.3919Z" fill="white"/>
<path d="M-4.44272 159.989C-2.06743 159.48 0.1382 159.141 2.51349 158.971C3.02248 158.971 2.85282 158.292 2.51349 158.292C0.1382 158.123 -2.23709 158.801 -4.44272 159.31C-4.95171 159.31 -4.95171 160.158 -4.44272 159.989Z" fill="white"/>
<path d="M-7.49653 164.739C-1.5583 163.721 5.22824 163.721 10.6575 161.007C11.1665 160.837 10.8271 160.158 10.3182 160.328C4.37992 162.194 -1.89763 162.194 -7.83586 164.061C-8.34485 164.061 -8.00552 164.909 -7.49653 164.739Z" fill="white"/>
<path d="M8.62134 164.57C3.87076 166.436 -0.879822 167.454 -6.1394 167.115C-6.81805 167.115 -6.81805 168.133 -6.30906 168.133C-1.21915 168.642 4.37975 167.793 8.79101 165.248C9.46966 164.909 9.13034 164.4 8.62134 164.57Z" fill="white"/>
<path d="M-1.21923 169.151C-1.89788 169.151 -1.89788 170.169 -1.38889 170.169C-0.370912 170.169 0.816734 170.339 2.00438 170.169C2.51337 169.999 2.51337 169.321 2.00438 169.321C0.986398 168.981 -0.201247 169.151 -1.21923 169.151Z" fill="white"/>
<path d="M7.77339 169.999C10.6577 169.49 13.7116 168.981 16.4262 167.793C16.7656 167.624 16.5959 166.945 16.2566 167.115C13.3723 167.963 10.6577 168.642 7.77339 169.151C7.2644 169.32 7.43406 170.169 7.77339 169.999Z" fill="white"/>
<path d="M83.4429 130.807C78.0136 142.344 71.3968 151.506 61.5563 159.649C61.2169 159.989 61.5563 160.667 62.0653 160.498C71.9058 154.39 81.4069 142.513 84.2912 131.146C84.4609 130.637 83.7822 130.298 83.4429 130.807Z" fill="white"/>
<path d="M86.3275 125.887C86.1578 126.396 87.0061 126.735 87.1758 126.226C88.8724 120.966 91.2477 115.198 90.7387 109.599C90.7387 109.09 89.8904 109.09 89.7208 109.599C89.0421 115.198 87.6848 120.457 86.3275 125.887Z" fill="white"/>
<path d="M79.3714 46.8232C79.7107 47.1625 80.3893 46.8232 80.05 46.3142C74.6208 34.9468 63.0836 25.2759 52.2252 19.168C51.7162 18.9984 51.3769 19.5074 51.7162 19.8467C63.0836 27.4815 71.5668 35.7951 79.3714 46.8232Z" fill="white"/>
<path d="M82.0858 50.8951C83.6128 55.9851 85.3094 60.9053 87.006 65.9952C87.1757 66.5042 88.024 66.1649 88.024 65.6559C86.8364 60.566 84.8004 55.6457 82.9341 50.7255C82.7644 50.2165 81.9161 50.3862 82.0858 50.8951Z" fill="white"/>
<path d="M62.9135 17.8108C63.7618 18.8288 64.7798 19.5074 65.6281 20.3557C66.6461 21.3737 67.4944 22.3917 68.5124 23.4097C68.8518 23.749 69.3607 23.4097 69.1911 22.9007C68.1731 20.5254 65.2888 18.6591 63.4225 16.9625C63.2529 16.7928 62.5742 17.4714 62.9135 17.8108Z" fill="white"/>
<path d="M91.4171 58.0212C87.6845 46.1447 80.389 35.2862 72.9238 25.7851C72.5844 25.4457 72.0755 25.9547 72.2451 26.294C80.2193 37.8312 86.8362 49.029 91.4171 62.2628V58.0212Z" fill="white"/>
<path d="M91.4171 76.175C91.2475 75.666 90.3992 75.666 90.3992 76.3447C90.3992 79.229 90.3992 81.9436 90.3992 84.8279C90.3992 85.3369 91.2475 85.5065 91.2475 84.9975V76.175H91.4171Z" fill="white"/>
<path d="M-26.6691 14.4176C-11.0601 9.83669 3.70066 6.27378 19.9884 8.81873C20.4974 8.81873 20.667 8.14008 20.158 7.97041C5.05796 2.71084 -12.5871 8.81872 -27.0085 13.739C-27.5175 13.739 -27.1781 14.4176 -26.6691 14.4176Z" fill="white"/>
<path d="M-6.81785 3.05002C1.32601 1.01406 8.96088 1.86237 17.1047 2.2017C17.6137 2.2017 17.7834 1.52305 17.2744 1.35338C9.63953 -0.852245 0.47769 -0.173575 -7.15718 2.03205C-7.66617 2.20172 -7.4965 3.21968 -6.81785 3.05002Z" fill="white"/>
<path d="M44.0808 15.7747C44.5898 15.7747 44.7595 15.0961 44.2505 14.9264C39.1606 13.0601 33.901 11.3634 28.6414 10.0061C28.1324 9.83647 27.7931 10.6848 28.3021 10.8545C33.5617 12.3814 38.6516 14.9264 44.0808 15.7747Z" fill="white"/>
<path d="M31.1868 7.9702C33.0531 8.64886 35.0891 8.98816 36.9554 9.32749C37.4644 9.49715 37.6341 8.64884 37.1251 8.47917C35.2588 7.63085 33.3925 7.63086 31.5262 6.95221C31.0172 6.95221 30.6779 7.80054 31.1868 7.9702Z" fill="white"/>
<path d="M38.8213 173.223C26.6055 181.367 12.6931 181.536 -1.21933 179.67C-1.72832 179.67 -1.72832 180.349 -1.21933 180.349C12.1841 182.724 28.4718 182.894 39.6696 174.071C40.0089 173.562 39.3303 172.883 38.8213 173.223Z" fill="white"/>
<path d="M19.9887 186.626C19.4797 186.626 19.4797 187.644 19.9887 187.644C24.2303 187.814 28.6415 187.135 32.8831 186.117C33.3921 185.948 33.2224 185.269 32.7135 185.269C28.4719 185.608 24.2303 186.287 19.9887 186.626Z" fill="white"/>
</svg>
