<svg width="95" height="91" viewBox="0 0 95 91" fill="none" xmlns="http://www.w3.org/2000/svg">
<path d="M93.8611 52.3491C90.6375 48.9558 86.7352 46.2412 83.1723 43.1873C80.1184 40.4727 76.8948 36.9097 73.1622 34.8738C74.6891 29.2749 77.5734 24.3546 80.1184 19.095C81.6453 16.0411 84.1903 11.4602 83.6813 7.72757C84.1903 7.21858 83.851 6.20059 83.0027 6.37026C73.3318 8.91521 64.5093 15.0231 55.8565 19.7737C51.6149 16.5501 47.7126 13.1568 43.6407 9.59387C39.9081 6.37026 36.1755 2.63766 31.5946 0.601697V0.43203C31.4249 -0.246625 30.4069 -0.0769575 30.4069 0.601697C31.0856 9.9332 28.8799 20.622 31.7642 29.7838C25.9956 32.1591 20.3968 36.9097 15.1372 40.1333C10.0473 43.3569 4.44837 46.4109 0.206776 50.6525C-0.302215 51.1615 0.206765 52.0098 0.88542 51.8401C12.4226 55.7424 27.0136 56.7604 39.0597 57.0997C41.6047 68.1278 44.489 79.3256 48.5609 89.6751C48.9003 90.5234 50.2576 90.1841 50.2576 89.3358C53.6508 86.2818 55.5171 80.6829 57.2138 76.7807C59.7587 70.8425 61.7947 64.2256 65.5273 58.7963C65.5273 58.7963 65.5273 58.6267 65.6969 58.6267C69.7689 58.7963 74.1801 57.6087 78.0824 56.93C83.0026 56.0817 88.0926 55.0637 93.0128 54.0457C93.1825 54.0457 93.3521 53.8761 93.5218 53.7064C93.8611 53.5368 94.3701 52.8581 93.8611 52.3491ZM77.5734 54.8941C73.3318 55.7424 68.5812 56.0817 64.5093 57.439C64.5093 57.439 64.5093 57.439 64.3397 57.6087C64.17 57.6087 64.17 57.7784 64.0003 57.948C60.9464 62.3593 59.0801 67.4492 57.0441 72.3694C55.0081 77.4593 52.6328 82.0403 50.0879 86.6212C50.5969 86.6212 51.1059 86.1122 51.6149 85.7729C51.7845 85.6032 51.9542 85.7729 51.9542 85.9425C51.7845 86.7908 51.1059 87.4695 50.2576 87.6392C50.2576 87.6392 50.2576 87.8088 50.2576 87.9785C50.0879 88.4875 49.9182 88.8268 49.5789 88.9965C49.4092 88.9965 49.2396 88.9965 49.2396 88.8268H49.0699L48.9002 88.6571C48.7306 88.4875 48.7306 88.3178 48.7306 88.1482C48.7306 88.1482 48.9002 87.8088 48.9002 87.6392V87.4695C48.7306 87.2998 48.9002 87.1302 48.9002 87.1302C47.8823 86.4515 47.2036 85.4335 46.8643 84.4155C46.6946 84.0762 47.034 83.9066 47.3733 84.0762C47.8823 84.5852 48.2216 84.9245 48.7306 85.4335C45.3373 75.9324 43.3013 66.0919 40.4171 56.421C40.5867 55.912 40.4171 55.2334 39.5687 55.0637C27.862 54.8941 16.1552 52.6884 4.44837 51.1615C4.61803 51.3311 4.7877 51.5008 4.95736 51.6705C5.12703 51.8401 4.95734 52.1794 4.61802 52.1794C4.44835 52.1794 4.27871 52.0098 4.10905 51.8401L3.93937 52.0098C3.93937 52.1795 3.76971 52.1794 3.60005 52.1794C3.26072 52.1794 2.92139 51.8401 2.75173 51.5008C2.58207 51.6705 2.4124 51.6705 2.24273 51.5008C2.07307 51.5008 1.90341 51.6705 1.90341 51.8401C1.56409 52.0098 1.22475 51.8401 1.39442 51.5008C1.39442 51.3311 1.56407 51.1615 1.73374 50.9918C1.73374 50.9918 1.73375 50.8221 1.90341 50.8221C2.07308 50.4828 2.41239 50.1435 2.58206 49.8042C2.58206 49.8042 2.75173 49.6345 2.75173 49.8042C2.75173 49.8042 2.75173 49.8042 2.75173 49.6345C2.92139 49.2952 2.9214 48.9558 3.26073 48.6165C3.43039 48.2772 3.7697 48.4468 3.7697 48.7862C3.93936 48.7862 3.93936 49.1255 3.7697 49.1255C3.93936 49.1255 3.7697 49.2952 3.7697 49.4648C3.7697 49.6345 3.7697 49.6345 3.7697 49.8042C8.68994 46.2412 13.9495 43.1873 19.0394 40.1333C23.281 37.5884 29.7283 34.8738 32.9519 30.8018C33.2912 30.6322 33.4608 30.4625 33.4608 29.9535C31.5945 21.9793 33.1215 13.8355 32.4429 5.86127V6.03094C32.4429 6.37026 32.1035 6.37026 31.9339 6.03094C31.7642 5.52194 31.7642 4.84329 31.9339 4.3343C31.7642 4.3343 31.5946 4.3343 31.5946 4.16463C31.5946 3.99497 31.5946 3.65564 31.5946 3.48598C31.4249 3.31632 31.4249 3.14665 31.4249 2.97698H31.2552C31.0856 2.63766 31.0856 2.12867 31.4249 1.95901C31.5945 1.78934 31.7642 1.95901 31.7642 1.95901C31.7642 1.95901 31.9339 1.959 31.9339 2.12867C32.1035 2.12867 32.1035 2.12867 32.2732 2.29833L32.4429 2.468C32.6125 2.29833 32.7822 2.29833 33.1215 2.29833C33.1215 2.29833 33.1215 2.29833 33.2912 2.29833C33.8002 2.29833 34.4788 2.46799 34.8182 2.97698V3.14665C34.9878 3.14665 34.9878 3.14665 35.1575 3.31631C35.3271 3.48598 35.1575 3.82531 34.9878 3.65564C34.4788 3.65564 33.9698 3.65564 33.4608 3.48598C40.7564 8.91522 47.0339 16.0411 54.8385 20.9613C55.0081 21.131 55.1778 21.4703 55.5171 21.4703C55.5171 21.4703 55.5171 21.4703 55.6868 21.4703C56.1958 21.8097 56.7048 21.4703 56.8744 20.9613C64.8486 17.9074 71.8048 12.3085 79.779 9.25454C78.7611 9.25454 77.5734 9.4242 76.7251 9.76353C76.3858 9.93319 76.2161 9.4242 76.5554 9.25454C77.5734 8.74555 78.9307 8.23656 80.1184 8.23656C80.1184 8.0669 80.1184 8.06689 80.288 8.06689C80.797 7.89723 81.1364 7.89723 81.6453 8.06689L81.815 7.89723H81.9847C82.1543 7.72757 82.324 7.5579 82.4937 7.5579C82.6633 7.5579 82.833 7.72757 82.833 7.89723C82.833 8.23656 83.1723 9.08488 82.6633 9.25454C82.6633 9.4242 82.6633 9.42421 82.6633 9.59387C83.1723 10.4422 83.1723 11.6298 82.6633 12.4782C82.4936 12.8175 82.1543 12.6478 82.1543 12.3085C81.9847 11.6298 81.9847 10.9512 81.815 10.2725C79.4397 18.7557 72.6532 25.8816 71.4655 34.5344C71.4655 35.0434 71.8049 35.3827 72.3138 35.5524C74.8588 38.6064 78.761 41.1513 81.815 43.8659C84.3599 46.0716 86.7353 48.4468 89.2802 50.6525C89.4499 50.9918 89.6195 51.5008 89.6195 51.8401C89.4499 52.0098 89.2802 52.1794 89.2802 52.3491C89.1105 52.3491 88.9409 52.5188 88.7712 52.5188C84.8689 53.5368 81.306 54.2154 77.5734 54.8941Z" fill="white"/>
</svg>
