<svg width="35" height="41" viewBox="0 0 35 41" fill="none" xmlns="http://www.w3.org/2000/svg">
<path d="M34.7811 15.6225C35.128 15.5058 35.0123 15.1556 34.7811 15.1556C31.1967 15.2723 27.0343 14.2217 23.5655 15.2724C22.7562 12.5874 21.253 9.90249 20.2124 7.3343C19.2874 4.88285 18.4781 2.19795 16.7437 0.0967114C16.5125 -0.13676 16.1656 0.0966901 16.2812 0.330161C15.3562 3.13182 14.8937 6.28369 14.3156 9.20208C13.7375 12.0037 13.1594 14.8054 12.9281 17.6071C8.65001 18.4242 4.37191 19.3581 0.209441 20.7589C-0.137432 20.8756 -0.0218085 21.3426 0.325064 21.3426C1.36568 22.7434 3.56254 23.5606 5.06566 24.261C7.37814 25.3116 9.80625 26.2455 11.8875 27.763C11.8875 27.763 11.8875 27.763 12.0031 27.763C11.7719 29.6308 12.0031 31.7321 12.1187 33.5998C12.2344 35.9345 12.2344 38.1526 12.5812 40.4873C12.5812 40.604 12.6969 40.604 12.6969 40.7207C12.6969 40.9542 13.0437 41.0709 13.1594 40.9542C14.6625 39.5534 15.9343 37.5688 17.2062 35.9345C18.3624 34.417 19.9812 32.8994 21.0218 31.1484C23.103 31.8488 24.953 33.0162 26.9186 34.0668C28.0749 34.6505 29.8092 35.8178 31.1967 35.5844C31.428 35.8178 31.7749 35.7011 31.7749 35.3509C30.9655 31.6153 28.7686 27.9965 27.0343 24.6112C28.3061 22.9769 29.6936 21.5761 31.0811 20.0585C32.4686 18.7744 33.8561 17.3736 34.7811 15.6225Z" fill="#8ABEBA"/>
</svg>
