<svg width="31" height="26" viewBox="0 0 31 26" fill="none" xmlns="http://www.w3.org/2000/svg">
<path d="M16.1883 25.4071C17.2063 24.5588 17.7153 22.8622 18.2243 21.8442C18.903 20.1476 19.5816 18.2813 20.5996 16.7543C21.9569 16.7543 23.4839 16.5846 25.0108 16.415C26.7075 16.2453 28.4041 16.2453 30.1008 15.906C30.1008 15.906 30.2705 15.906 30.2705 15.7363C30.4401 15.7363 30.6098 15.5666 30.4401 15.397C29.4221 14.2093 27.8952 13.361 26.5379 12.5127C25.3502 11.6644 24.1625 10.4768 22.9749 9.7981C23.3142 8.27112 24.3322 6.74413 25.0108 5.21716C25.5198 4.36884 26.1986 3.01154 26.0289 1.99356C26.1986 1.82389 26.0288 1.48455 25.8592 1.65421C23.1445 2.33287 20.5996 4.1992 18.0547 5.55651C16.867 4.70819 15.6793 3.69019 14.4917 2.6722C13.4737 1.65422 12.286 0.636239 11.0984 0.127248C11.0984 -0.0424159 10.7592 -0.0424159 10.7592 0.127248C10.9288 2.84187 10.4197 5.8958 11.0984 8.44076C9.2321 9.11941 7.1962 10.3071 5.3299 11.1554C3.63326 12.0037 1.59724 12.6824 0.0702641 14.0397C-0.0993996 14.2094 0.0703263 14.379 0.23999 14.379C2.27595 15.0576 4.65118 15.2273 6.85681 15.5667C8.89278 15.906 10.9288 16.2453 13.1344 16.415C13.813 19.6386 14.6614 22.8622 15.8491 25.7465C15.8491 25.9161 16.1883 25.7465 16.1883 25.4071Z" fill="#8ABEBA"/>
</svg>
