<svg width="69" height="67" viewBox="0 0 69 67" fill="none" xmlns="http://www.w3.org/2000/svg">
<path d="M67.8466 33.9739C67.677 33.9739 67.5073 33.9739 67.3376 33.9739C67.5073 33.6346 67.3376 33.2952 66.8286 33.1256C57.8365 30.9199 49.6926 25.6604 40.7004 23.7941C41.5488 16.4985 41.2094 8.86367 41.3791 1.39847C41.3791 1.05914 41.2094 0.719826 40.8701 0.719826C40.7004 0.210835 40.0218 -0.298161 39.5128 0.21083C36.6285 2.92545 34.0835 5.80972 31.1993 8.52434C28.824 10.73 25.9397 12.7659 23.9037 15.4806C23.9037 15.3109 23.7341 14.9716 23.5644 14.8019C20.6801 12.7659 17.2868 11.4086 14.0632 9.88165C10.5003 8.35468 6.93736 6.14905 3.37442 5.13107C3.20476 5.13107 3.03509 5.13107 2.86543 5.13107C2.69577 4.9614 2.5261 4.62209 2.35644 4.45242C1.84745 3.77377 0.999131 4.45241 1.16879 5.13107C3.71375 12.2569 6.93736 20.0615 10.67 26.6783C10.8396 27.0177 11.179 27.0177 11.3486 27.0177L11.179 27.1873C7.61601 33.4649 3.88341 39.4031 0.490139 45.6807C0.490139 45.6807 0.320476 45.6807 0.320476 45.8503C-0.358179 46.1897 0.150812 47.2077 0.829467 46.8683C6.93736 44.6627 13.0453 42.7964 19.4925 41.2694C23.5644 49.583 27.806 57.8965 32.0476 66.21C32.3869 66.8886 33.2352 66.5493 33.2352 66.0403C33.5746 66.21 34.0835 66.21 34.0835 65.701C34.7622 56.8785 34.2532 47.7167 33.4049 38.8942C44.7724 37.8762 56.3095 36.1795 67.677 35.1615C68.6949 35.3312 68.6949 33.9739 67.8466 33.9739ZM31.8779 38.2155C31.1993 38.3851 31.3689 39.4031 32.0476 39.4031C32.8959 48.2256 32.8959 56.8785 33.0656 65.701C29.1633 57.5571 25.261 49.4133 21.1891 41.4391C21.6981 40.9301 21.3588 39.7425 20.5105 39.9121C14.4026 41.2694 8.29467 42.9661 2.5261 45.511C6.42837 40.2515 9.48231 34.3132 12.5363 28.5447C12.8756 27.866 12.3666 27.357 11.8576 27.357C12.1969 27.1874 12.1969 26.848 12.0273 26.5087C9.31265 20.5705 7.27669 13.6143 4.05308 7.8457C5.91938 9.203 8.46433 10.221 10.5003 11.0693C14.4026 12.7659 18.3048 14.6322 22.0374 16.6682C22.5464 17.0075 23.2251 16.6682 23.3947 16.3289C23.3947 16.8379 24.0734 17.3469 24.4127 17.0075C27.297 15.3109 29.842 12.5963 32.3869 10.221C34.7622 8.01535 37.1375 5.64006 39.1735 3.09511C38.3251 10.0513 38.8341 17.1772 38.8341 24.1334C38.3251 24.4727 38.3251 25.3211 39.0038 25.3211C47.6566 27.5267 55.4612 31.9379 63.9444 34.4829C53.5949 34.6526 42.5667 36.5188 31.8779 38.2155Z" fill="#D9B175"/>
</svg>
