<svg width="41" height="40" viewBox="0 0 41 40" fill="none" xmlns="http://www.w3.org/2000/svg">
<path d="M39.9381 20.6496C39.7685 20.6496 39.7685 20.6496 39.5988 20.6496C39.5988 20.48 39.5989 20.3103 39.2595 20.1407C34 18.7834 29.2494 15.7294 23.9898 14.7114C24.4988 10.4698 24.3291 6.05859 24.4988 1.64733C24.4988 1.47767 24.3291 1.30798 24.3291 1.30798C24.3291 0.968654 23.8201 0.629358 23.4807 0.968685C21.7841 2.49566 20.2572 4.19228 18.5606 5.88892C17.2032 7.24623 15.5066 8.43387 14.319 9.96084C14.319 9.79118 14.3189 9.62149 14.1492 9.62149C12.4526 8.43385 10.5864 7.58556 8.72008 6.73724C6.68412 5.88892 4.64813 4.5316 2.44251 4.02261C2.27284 4.02261 2.27282 4.02261 2.10316 4.02261C1.93349 3.85295 1.93353 3.68326 1.93353 3.68326C1.59421 3.34394 1.08517 3.68328 1.25484 4.02261C2.78181 8.2642 4.64809 12.6754 6.85372 16.5777C7.02338 16.7474 7.19303 16.7474 7.36269 16.7474C7.36269 16.7474 7.19307 16.7474 7.19307 16.9171C5.1571 20.48 2.95145 24.0429 0.91549 27.7755H0.745868C0.406541 27.9452 0.576225 28.4542 1.08522 28.4542C4.64815 27.0969 8.21103 26.0789 11.9436 25.2306C14.3189 30.1508 16.6942 34.9014 19.2391 39.652C19.4088 39.9913 19.9178 39.8216 19.9178 39.4823C20.0875 39.652 20.4268 39.652 20.4268 39.3126C20.7661 34.2227 20.5965 28.7935 20.0875 23.7036C26.7043 23.025 33.3213 22.1766 40.1079 21.4979C40.2775 21.4979 40.2775 20.6496 39.9381 20.6496ZM18.8999 23.025C18.3909 23.025 18.5605 23.7036 19.0695 23.7036C19.5785 28.7935 19.5786 33.8834 19.7482 38.9733C17.5426 34.2228 15.1672 29.4721 12.7919 24.8912C13.1313 24.5519 12.9616 23.8732 12.4526 24.0429C8.88966 24.8912 5.32681 25.9092 1.93353 27.2666C4.13916 24.2126 6.00546 20.8193 7.87176 17.426C8.04143 17.0867 7.70202 16.7474 7.36269 16.7474C7.53235 16.5777 7.70208 16.4081 7.53242 16.2384C5.83578 12.8451 4.81778 8.77317 2.95148 5.3799C4.13912 6.22822 5.49645 6.73722 6.6841 7.24621C9.05939 8.26419 11.265 9.28216 13.4706 10.4698C13.81 10.6395 14.1493 10.4699 14.319 10.3002C14.319 10.6395 14.6582 10.8091 14.9976 10.6395C16.6942 9.6215 18.2212 8.09455 19.5785 6.73724C20.9358 5.37993 22.2932 4.02262 23.6505 2.49565C23.1415 6.56758 23.4807 10.8091 23.4807 14.8811C23.3111 15.0507 23.1414 15.5597 23.4807 15.5597C28.5707 16.917 32.982 19.462 38.0719 20.8193C31.6247 20.989 25.1775 22.1766 18.8999 23.025Z" fill="white"/>
</svg>
