<svg width="46" height="40" viewBox="0 0 46 40" fill="none" xmlns="http://www.w3.org/2000/svg">
<path d="M0.554148 21.9714C3.77776 22.9894 7.34068 23.1591 10.5643 23.6681C13.6182 24.1771 16.8419 24.6861 19.8958 24.8557C21.0834 29.6063 22.2711 34.3569 23.9677 38.9378C24.1374 39.2771 24.6464 39.1075 24.6464 38.7682C26.1733 37.4109 27.0217 35.0355 27.7003 33.3389C28.7183 30.794 29.7363 27.9097 31.2632 25.5344C31.2632 25.5344 31.2632 25.5344 31.2632 25.3647C33.2992 25.5344 35.6745 25.1951 37.7105 25.0254C40.2554 24.8557 42.8004 24.6861 45.3453 24.1771C45.515 24.1771 45.515 24.1771 45.515 24.0074C45.6847 24.0074 45.8543 23.6681 45.6846 23.4984C43.988 21.8018 41.7824 20.4445 39.9161 19.0872C38.2194 17.8995 36.3532 16.0332 34.4869 15.0153C35.1655 12.64 36.3532 10.4343 37.5408 8.22871C38.2195 6.8714 39.2374 5.00506 39.0678 3.30842C39.2374 3.13876 39.0678 2.62979 38.7285 2.79945C34.4869 3.81743 30.7542 6.53204 27.0216 8.568C25.1553 7.2107 23.4587 5.68371 21.7621 4.15674C20.2351 2.79943 18.5385 1.10281 16.5025 0.254496C16.3329 -0.0848318 15.9935 -0.0848318 15.9935 0.254496C16.3328 4.32642 15.3149 8.90733 16.5025 12.8096C13.6182 13.8276 10.7339 15.6939 7.84966 16.8815C5.13505 18.0692 2.25075 19.0871 0.0451255 21.1231C-0.124538 21.6321 0.21482 21.9714 0.554148 21.9714Z" fill="#D9AF73"/>
</svg>
