<svg width="36" height="35" viewBox="0 0 36 35" fill="none" xmlns="http://www.w3.org/2000/svg">
<path d="M35.5059 13.8833C35.6756 13.7136 35.6756 13.3743 35.3363 13.2047C33.3003 12.8653 31.2643 12.6957 29.2284 12.1867C27.5317 11.8473 25.8351 11.3384 23.9688 11.508C22.9508 9.47205 22.4418 7.09677 21.7632 4.89114C21.2542 3.36417 20.7452 1.49786 19.5576 0.479877C19.5576 0.14055 19.2182 -0.198772 18.8789 0.140555C16.3339 3.36416 14.4677 7.09676 12.771 10.6597C8.69909 10.8294 4.45747 10.6597 0.38554 11.508C0.215876 11.3384 -0.12342 11.6777 0.0462435 11.8473C2.5912 14.7316 5.30578 18.2946 8.69905 20.5002C7.85073 22.1968 7.5114 24.2328 7.00241 26.0991C6.49342 28.3047 5.98445 30.3407 5.64512 32.5463C5.64512 32.8856 5.98443 32.8856 6.15409 32.716C8.35972 32.0373 10.226 30.8497 12.0923 29.8317C13.6193 28.9834 15.316 28.1351 16.8429 27.1171C19.3879 29.153 21.9328 31.189 24.4778 32.8857C24.6475 33.0553 24.8171 33.225 24.9868 33.225C25.4958 33.5643 26.0047 33.9036 26.5137 34.2429C26.8531 34.4126 27.1924 33.9036 27.0228 33.734C27.0228 33.3946 27.1924 33.0553 27.1924 32.716C27.1924 32.5463 27.3621 32.3766 27.1924 32.207C27.3621 28.9834 26.3441 25.4204 26.3441 22.1968V22.0272C29.5677 19.9912 32.7913 16.5979 35.3363 13.8833C35.3363 14.053 35.3363 13.8833 35.5059 13.8833Z" fill="#8ABEBA"/>
</svg>
