<svg width="37" height="42" viewBox="0 0 37 42" fill="none" xmlns="http://www.w3.org/2000/svg">
<path d="M35.6003 16.1637C31.5284 15.6547 27.1171 14.8064 23.0451 14.6367C22.5362 14.6367 22.3665 15.3154 22.8755 15.4851C26.4385 16.6727 30.68 17.012 34.5823 17.012C31.189 19.2177 28.1351 22.102 24.9115 24.4772C24.5721 24.3076 24.2328 24.6469 24.4025 24.9862C26.4385 29.7368 27.2868 34.8267 29.3227 39.4076C25.2508 34.657 20.3305 30.4155 15.7496 26.1739C15.4103 25.8346 15.071 26.3435 15.2407 26.6828C11.6777 30.2458 7.60576 33.4694 3.7035 36.693C5.90913 31.9424 8.11474 27.1918 10.3204 22.4413C10.8294 22.6109 11.1687 21.9323 10.6597 21.5929C7.77544 19.3873 4.89117 17.1817 1.66756 15.4851C5.40017 15.3154 9.3024 14.6367 13.035 13.9581C13.544 13.9581 13.544 13.4491 13.2047 13.1098C13.3743 13.1098 13.7136 13.1098 13.7136 12.9401C15.4103 9.54683 17.7856 6.15355 19.3126 2.59061C19.3126 4.28725 19.9912 5.81423 20.3306 7.3412C21.0092 9.54683 21.5182 11.7524 21.8575 13.9581C22.0272 14.6367 23.0452 14.4671 22.8755 13.7884C22.7059 11.4131 22.0272 9.20751 21.5182 7.00188C21.0092 5.13558 20.8395 2.92995 19.9912 1.06365C19.9912 0.893988 19.8215 0.893978 19.8215 0.893978C19.8215 0.724314 19.8216 0.72432 19.9912 0.554656C20.1609 0.215329 19.4822 -0.293657 19.3126 0.215334C16.9373 3.94793 14.562 8.35919 13.035 12.6008C12.8653 12.7704 13.035 13.1098 13.2047 13.1098C13.2047 13.1098 13.035 12.9401 12.8653 13.1098C8.7934 13.7884 4.55184 14.2974 0.649572 14.9761C0.649572 14.9761 0.479898 14.9761 0.479898 14.8064C0.14057 14.6367 -0.198778 15.1457 0.14055 15.3154C3.36416 17.3514 6.58777 19.3873 9.47205 21.7626C7.26642 26.6829 4.89113 31.6031 2.6855 36.5233C2.51584 36.8627 3.02486 37.0323 3.19453 36.8627C3.19453 37.0323 3.53383 37.3717 3.7035 37.202C7.94509 34.3177 11.8474 30.7548 15.58 27.1918C20.1609 31.9424 25.0811 36.693 29.8317 41.2739C30.171 41.6133 30.6801 41.1043 30.5104 40.7649L30.3407 40.5953C30.5104 40.4256 30.6801 40.256 30.5104 40.0863C28.3048 35.166 27.6261 29.5671 25.2508 24.8166C27.1171 23.6289 28.8137 22.4413 30.3407 21.084C32.0374 19.557 33.9036 18.3693 35.7699 17.012C35.9396 16.8424 35.9396 16.6727 35.9396 16.503C36.1093 16.6727 36.1093 16.1637 35.6003 16.1637Z" fill="#526E84"/>
</svg>
