<svg width="110" height="108" viewBox="0 0 110 108" fill="none" xmlns="http://www.w3.org/2000/svg">
<path d="M74.022 101.98C67.5748 103.847 61.8063 106.561 55.1894 104.016C49.9298 102.15 45.8579 97.7389 43.8219 92.4794C38.3927 79.0759 45.8579 65.8421 57.904 59.3949C58.7523 58.8859 58.0737 57.5286 57.2253 58.0376C43.8219 64.3152 36.0174 79.0759 41.9556 93.4973C47.2152 106.392 63.1636 111.821 74.7007 103.338C75.2097 102.829 74.8703 101.641 74.022 101.98ZM78.2636 94.176C69.9501 93.158 62.6546 91.9704 58.2433 83.8265C54.3411 76.7006 55.5287 68.7264 60.1096 62.2792C60.6186 61.6006 59.6006 60.9219 59.0916 61.4309C47.7242 75.004 59.0916 100.963 78.4333 95.703C79.2816 95.5333 79.2816 94.176 78.2636 94.176ZM92.3457 70.5927C92.8547 70.0837 92.0064 69.0658 91.3277 69.4051C86.5772 72.1197 81.8266 73.986 76.2277 72.2894C70.6288 70.7624 67.0658 66.3511 66.7265 60.5826C66.7265 59.7342 65.1995 59.7342 65.1995 60.5826C65.1995 73.8163 83.6929 80.6029 92.3457 70.5927ZM69.4411 51.9297C68.7625 51.4207 67.5748 52.4387 68.2535 53.1174C77.2456 61.7702 90.8188 64.1455 100.829 55.832C109.991 48.1971 113.045 32.5881 105.071 23.0869C104.562 22.4083 103.374 22.9172 103.713 23.7656C106.428 34.4544 109.142 44.8039 99.6413 53.2871C90.4794 61.7702 78.603 58.7163 69.4411 51.9297ZM67.2355 44.6342C66.2175 44.2949 65.7085 45.6522 66.7265 46.1612C73.6827 49.2151 81.6569 49.3848 88.1041 44.6342C93.1941 40.9016 96.757 33.7757 94.721 27.6678C94.3817 26.8195 93.1941 27.1588 93.1941 28.0072C92.5154 34.2847 91.8367 39.3746 86.2378 43.2769C80.4693 47.0095 73.513 46.8398 67.2355 44.6342ZM46.0275 2.38795C55.1894 3.40593 63.3332 4.42389 67.7445 13.9251C71.8164 22.4082 69.1018 31.7398 63.1636 38.696C62.4849 39.3746 63.6726 40.3926 64.3512 39.8836C71.8164 32.5881 74.7007 21.8993 69.7804 12.2284C65.5388 3.9149 55.0197 -2.36265 45.6882 0.86096C44.8399 1.03062 45.1792 2.38795 46.0275 2.38795ZM41.9556 18.3363C46.1972 19.1846 50.0995 21.0509 52.6444 24.6139C55.5287 28.3465 55.6984 32.5881 55.5287 37.169C55.5287 38.187 57.0557 38.696 57.395 37.678C60.449 27.4982 51.9658 17.8273 42.1253 16.8094C41.1073 16.47 40.9376 17.997 41.9556 18.3363ZM28.8915 26.4802C38.732 27.3285 47.7242 33.4364 51.7961 42.5982C52.1355 43.4466 53.6624 43.1072 53.4928 42.0892C45.5186 16.3004 5.98693 19.1846 0.0487058 44.9735C-0.290622 46.1612 1.23635 46.6702 1.74534 45.6522C7.34424 34.2847 14.8094 25.2925 28.8915 26.4802ZM49.0815 48.3668C50.0995 48.8758 50.7781 47.3488 49.9298 46.6702C39.4107 38.8656 17.015 34.4544 10.3981 49.2151C10.0588 49.8938 11.2465 50.5724 11.5858 49.8938C19.7297 35.4724 37.5444 43.4465 49.0815 48.3668ZM50.2691 53.2871C51.1174 53.4567 51.4568 52.2691 50.7781 51.7601C41.6163 45.4825 30.2488 53.1174 24.6499 60.5826C17.6937 69.7444 13.9611 82.8085 18.8813 93.667C19.2207 94.5153 20.578 93.8367 20.2387 92.9883C16.5061 83.1479 19.7297 71.7804 25.4983 63.4669C31.9455 54.305 39.4106 51.4208 50.2691 53.2871ZM48.4029 55.832C40.768 55.832 32.9634 62.4489 31.9455 69.9141C31.7758 70.7624 33.3028 71.1017 33.4724 70.2534C35.3387 62.4489 41.6163 59.7342 48.5725 57.1893C49.4208 57.1893 49.0815 55.832 48.4029 55.832ZM103.883 64.3152C103.035 64.3152 102.186 64.9938 101.338 65.5028C100.49 66.0118 99.6413 66.3511 98.7929 66.3511C97.9446 66.3511 98.1143 67.7085 98.7929 67.7085C99.9806 67.7085 100.829 67.5388 101.847 67.1994C102.865 66.6905 103.883 66.1815 104.731 65.3332C105.07 64.8242 104.562 64.1455 103.883 64.3152ZM94.5513 90.104C90.8187 91.631 86.9165 92.8187 83.1839 94.176C82.1659 94.5153 82.8446 96.0423 83.6929 95.8726C87.5951 95.194 92.3457 94.176 95.3997 91.4614C95.9087 90.7827 95.23 89.7647 94.5513 90.104ZM32.1151 76.022C31.2668 77.8883 30.5881 80.6029 31.0971 82.6388C31.2668 83.1478 32.2848 83.4872 32.4544 82.8085C32.6241 81.9602 32.6241 80.9422 32.6241 79.9242C32.6241 78.7366 32.9634 77.7186 33.4724 76.5309C33.8117 75.6826 32.6241 75.3433 32.1151 76.022ZM7.5139 52.0994C5.6476 54.305 3.95095 57.5286 3.95095 60.5826C3.95095 61.7702 5.6476 61.9399 5.81726 60.7522C6.15659 58.0376 7.34424 54.9837 8.53189 52.6084C9.04088 52.0994 7.85322 51.5904 7.5139 52.0994ZM26.1769 14.0947C29.5702 16.1307 34.1511 16.979 38.0534 17.1487C38.9017 17.1487 39.0713 16.1307 38.3927 15.6217C34.8297 13.9251 30.7578 13.5857 27.0252 12.3981C26.0072 12.0588 25.1589 13.4161 26.1769 14.0947ZM92.1761 20.8813C92.5154 21.7296 93.5333 21.2206 93.5333 20.3723C93.194 16.3004 91.8367 11.8891 89.2918 8.49583C88.7828 7.64751 87.2558 8.49584 87.7648 9.51382C89.8008 13.0768 90.4794 17.1487 92.1761 20.8813ZM70.1198 39.714C69.2715 40.2229 69.7804 41.4106 70.7984 41.0712C78.603 38.5263 86.4075 30.3824 83.3535 21.7296C83.1839 21.0509 81.8266 21.2206 81.8266 22.0689C81.9962 26.6498 81.1479 30.5521 77.9243 33.9454C75.7187 36.3207 73.0041 38.187 70.1198 39.714Z" fill="white"/>
</svg>
